<?xml version="1.0" encoding="UTF-8"?>
<svg version="1.1" xmlns="http://www.w3.org/2000/svg" width="851" height="850">
<path d="M0 0 C61.05 0 122.1 0 185 0 C185 0.66 185 1.32 185 2 C187.64 2 190.28 2 193 2 C193 2.66 193 3.32 193 4 C194.32 4 195.64 4 197 4 C197 4.66 197 5.32 197 6 C198.32 5.67 199.64 5.34 201 5 C201.0825 5.5775 201.165 6.155 201.25 6.75 C202.2026631 9.60798931 203.86053074 10.92954588 206 13 C206 13.66 206 14.32 206 15 C206.66 15 207.32 15 208 15 C208 15.99 208 16.98 208 18 C208.99 17.67 209.98 17.34 211 17 C210.96744792 19.05078125 210.93489583 21.1015625 210.90234375 23.15234375 C210.79438816 25.01732141 210.79438816 25.01732141 212 26 C212.09605864 27.63223456 212.12187821 29.2686439 212.12025452 30.90370178 C212.12231651 32.49603889 212.12231651 32.49603889 212.12442017 34.12054443 C212.12082489 35.29514221 212.11722961 36.46973999 212.11352539 37.67993164 C212.11367142 38.90902756 212.11381744 40.13812347 212.1139679 41.40446472 C212.11338892 44.78448672 212.10835964 48.16444829 212.10139394 51.54445958 C212.09515988 55.07321194 212.09455656 58.60196503 212.09336853 62.13072205 C212.09025537 68.81723119 212.08204218 75.50372406 212.07201904 82.19022602 C212.05877206 91.2226555 212.05335787 100.2550894 212.04751682 109.28752613 C212.03810228 123.52502962 212.01818327 137.76249876 212 152 C247.97 152 283.94 152 321 152 C321 152.66 321 153.32 321 154 C322.32 154 323.64 154 325 154 C325 154.66 325 155.32 325 156 C326.98 155.505 326.98 155.505 329 155 C329.33 156.65 329.66 158.3 330 160 C330.66 160 331.32 160 332 160 C332 160.66 332 161.32 332 162 C332.66 162 333.32 162 334 162 C334 162.66 334 163.32 334 164 C334.99 163.67 335.98 163.34 337 163 C337.33 163.66 337.66 164.32 338 165 C337.34 165 336.68 165 336 165 C336 165.66 336 166.32 336 167 C336.66 167 337.32 167 338 167 C338 168.32 338 169.64 338 171 C338.66 171 339.32 171 340 171 C340.67528223 172.57967807 341.33989694 174.16391903 342 175.75 C342.37125 176.63171875 342.7425 177.5134375 343.125 178.421875 C344 181 344 181 344 185 C344.66 185 345.32 185 346 185 C346 186.65 346 188.3 346 190 C346.66 190 347.32 190 348 190 C348 191.65 348 193.3 348 195 C348.66 195 349.32 195 350 195 C350 196.65 350 198.3 350 200 C350.66 200 351.32 200 352 200 C353.49821059 203.37097383 354 205.20442119 354 209 C354.66 209 355.32 209 356 209 C356 210.65 356 212.3 356 214 C356.99 213.67 357.98 213.34 359 213 C359.33 213.66 359.66 214.32 360 215 C359.34 215 358.68 215 358 215 C358 216.32 358 217.64 358 219 C358.66 219 359.32 219 360 219 C360 220.65 360 222.3 360 224 C360.66 224 361.32 224 362 224 C363.49821059 227.37097383 364 229.20442119 364 233 C364.66 233 365.32 233 366 233 C366 234.98 366 236.96 366 239 C366.66 239 367.32 239 368 239 C368.67528223 240.57967807 369.33989694 242.16391903 370 243.75 C370.37125 244.63171875 370.7425 245.5134375 371.125 246.421875 C372 249 372 249 372 253 C372.66 253 373.32 253 374 253 C374 254.65 374 256.3 374 258 C374.66 258 375.32 258 376 258 C376 259.65 376 261.3 376 263 C376.66 263 377.32 263 378 263 C378.26554688 263.55429687 378.53109375 264.10859375 378.8046875 264.6796875 C379.15789063 265.40414063 379.51109375 266.12859375 379.875 266.875 C380.22304688 267.59429687 380.57109375 268.31359375 380.9296875 269.0546875 C381.96557543 271.15135019 381.96557543 271.15135019 384 273 C383.34 273 382.68 273 382 273 C382.495 273.928125 382.99 274.85625 383.5 275.8125 C385 279 385 279 385 282 C385.66 282.33 386.32 282.66 387 283 C387.99415336 285.40752802 388.89218865 287.79412829 389.75 290.25 C392.11153892 296.82445337 394.79753582 303.0627134 397.8984375 309.328125 C399 312 399 312 399 316 C399.66 316.33 400.32 316.66 401 317 C401.88916684 319.13634806 402.68683383 321.31114162 403.4375 323.5 C403.84871094 324.6859375 404.25992188 325.871875 404.68359375 327.09375 C404.99974028 328.04764597 404.99974028 328.04764597 405.32227361 329.02081257 C405.77326357 330.33785388 406.25650125 331.64429745 406.77141249 332.93768686 C409.17246294 339.26194139 409.42312956 345.01828153 409.38095093 351.73426819 C409.38797089 353.46467878 409.38797089 353.46467878 409.39513266 355.23004717 C409.40706168 359.08064778 409.39763327 362.93089113 409.38818359 366.78149414 C409.39060044 369.54813874 409.39748439 372.31476836 409.40411377 375.08140564 C409.41742749 381.80662284 409.41458406 388.53173938 409.40587585 395.25696046 C409.39909095 400.72388633 409.39818606 406.19078406 409.4014473 411.65771294 C409.401907 412.43683561 409.40236669 413.21595829 409.40284032 414.01869075 C409.40379953 415.6016251 409.40477217 417.18455944 409.4057581 418.76749378 C409.41430493 433.59726241 409.40448868 448.42697534 409.388357 463.25673484 C409.37495181 475.97367467 409.37728492 488.69053235 409.39111328 501.4074707 C409.40717705 516.18700479 409.41348379 530.96649011 409.40427649 545.7460317 C409.40332087 547.32272207 409.40237776 548.89941245 409.4014473 550.47610283 C409.40098447 551.25180134 409.40052164 552.02749985 409.40004479 552.82670437 C409.39745749 558.28581374 409.40182024 563.7448921 409.40888596 569.20399666 C409.41730989 575.85853348 409.41500196 582.51296418 409.39904372 589.16748888 C409.39117329 592.56096456 409.38967008 595.95411739 409.39799118 599.34761429 C409.40618715 603.02949109 409.39590772 606.71087036 409.38095093 610.39271545 C409.39098918 611.99442387 409.39098918 611.99442387 409.40123022 613.62849003 C409.3330617 622.2784316 407.02805402 628.32751615 403 636 C402.34 636 401.68 636 401 636 C401 636.66 401 637.32 401 638 C399.01739574 639.68732277 397.0167658 641.35366057 395 643 C394.67 643.66 394.34 644.32 394 645 C391.37418862 646.57548683 390.12900213 647 387 647 C387 647.66 387 648.32 387 649 C385.865625 649.144375 384.73125 649.28875 383.5625 649.4375 C380.19222799 649.61171478 380.19222799 649.61171478 379 651 C375.98516527 651.10003085 372.99317313 651.1335854 369.97784424 651.12584114 C369.01461699 651.12729458 368.05138974 651.12874802 367.05897379 651.13024551 C363.78832395 651.1339335 360.51771991 651.13040622 357.24707031 651.12698364 C354.8957835 651.12813436 352.54449686 651.12972154 350.1932106 651.13171089 C345.05889321 651.13503126 339.92458537 651.13520533 334.79026794 651.13266373 C327.15559103 651.12889458 319.52092305 651.13080801 311.8862462 651.13387203 C298.25387719 651.13914907 284.62151284 651.1386769 270.98914337 651.13579312 C259.05953421 651.1332818 247.12992676 651.13261888 235.20031738 651.13381577 C234.41031358 651.13389215 233.62030978 651.13396854 232.80636647 651.13404724 C229.59982906 651.13435855 226.39329165 651.13467695 223.18675424 651.135007 C193.08065875 651.13806895 162.97456624 651.13528787 132.86847121 651.1299101 C106.09590629 651.12516417 79.32334613 651.12558879 52.55078125 651.13037109 C22.50125429 651.13572076 -7.54827003 651.13785183 -37.59779739 651.13475883 C-40.79863739 651.13443809 -43.99947739 651.13412525 -47.20031738 651.13381577 C-47.98849923 651.13373669 -48.77668108 651.13365761 -49.58874723 651.13357614 C-61.51355194 651.13243661 -73.43835474 651.13377276 -85.36315918 651.13629532 C-98.91637243 651.13914798 -112.46958025 651.13845388 -126.02279282 651.13301457 C-133.6166527 651.13006783 -141.21050085 651.12990161 -148.80436043 651.13366075 C-154.45899247 651.13615223 -160.11361223 651.13347036 -165.76824236 651.12868617 C-168.06767651 651.12756084 -170.36711222 651.12815571 -172.66654539 651.13056196 C-175.77033481 651.13356301 -178.87405838 651.13052453 -181.97784424 651.12584114 C-183.3451903 651.12935289 -183.3451903 651.12935289 -184.74015951 651.13293558 C-190.88584966 651.11415034 -190.88584966 651.11415034 -192 650 C-193.0725 649.855625 -194.145 649.71125 -195.25 649.5625 C-198.52233274 649.07165009 -201.01261388 648.35790278 -204 647 C-204 646.34 -204 645.68 -204 645 C-204.66 645 -205.32 645 -206 645 C-206.33 645.66 -206.66 646.32 -207 647 C-207.28875 646.195625 -207.5775 645.39125 -207.875 644.5625 C-208.73262568 641.8673532 -208.73262568 641.8673532 -211 641 C-211 640.34 -211 639.68 -211 639 C-212.65 638.67 -214.3 638.34 -216 638 C-215.67 636.68 -215.34 635.36 -215 634 C-215.66 634 -216.32 634 -217 634 C-217 632.68 -217 631.36 -217 630 C-217.66 630 -218.32 630 -219 630 C-219 627.36 -219 624.72 -219 622 C-219.66 622 -220.32 622 -221 622 C-221.02286519 586.34667806 -221.04049762 550.6933574 -221.05106533 515.04002965 C-221.05231611 510.83536155 -221.05361042 506.63069347 -221.05493164 502.42602539 C-221.05519395 501.58891556 -221.05545626 500.75180574 -221.05572652 499.88932895 C-221.06008346 486.31676324 -221.06797114 472.74420176 -221.0771528 459.17163856 C-221.08648868 445.25553128 -221.09205547 431.33942622 -221.09408849 417.42331594 C-221.09546386 408.82926978 -221.09981517 400.23523552 -221.10791647 391.64119302 C-221.11318312 385.75611396 -221.11480448 379.87104109 -221.11350138 373.98595984 C-221.11285787 370.58540532 -221.11387694 367.18487168 -221.11920547 363.78432083 C-221.12413514 360.10624262 -221.12300098 356.42821659 -221.12025452 352.75013733 C-221.12316736 351.66358465 -221.1260802 350.57703197 -221.12908131 349.45755345 C-221.12709026 348.48021164 -221.12509921 347.50286983 -221.12304783 346.4959116 C-221.12342755 345.64571778 -221.12380727 344.79552396 -221.1241985 343.91956669 C-221 342 -221 342 -220 341 C-219.79011244 339.58908915 -219.63168764 338.17034524 -219.5 336.75 C-219.16891 333.4443554 -218.68987749 330.25227961 -218 327 C-218 326.34 -218 325.68 -218 325 C-217.34 325 -216.68 325 -216 325 C-215.505 323.02 -215.505 323.02 -215 321 C-214.34 321 -213.68 321 -213 321 C-213.33 319.02 -213.66 317.04 -214 315 C-213.34 315 -212.68 315 -212 315 C-212 313.02 -212 311.04 -212 309 C-211.34 309 -210.68 309 -210 309 C-210 307.68 -210 306.36 -210 305 C-209.34 305 -208.68 305 -208 305 C-207.505 303.02 -207.505 303.02 -207 301 C-206.34 301 -205.68 301 -205 301 C-205.33 299.02 -205.66 297.04 -206 295 C-205.34 295 -204.68 295 -204 295 C-202.515 291.04 -202.515 291.04 -201 287 C-200.34 287 -199.68 287 -199 287 C-199 285.35 -199 283.7 -199 282 C-198.34 282 -197.68 282 -197 282 C-197.33 279.69 -197.66 277.38 -198 275 C-197.34 275 -196.68 275 -196 275 C-195.67 274.01 -195.34 273.02 -195 272 C-194.34 272 -193.68 272 -193 272 C-192.67 268.37 -192.34 264.74 -192 261 C-191.34 261 -190.68 261 -190 261 C-187.90649311 257.5980513 -187.82057837 254.94727588 -188 251 C-187.34 251 -186.68 251 -186 251 C-185.67 250.01 -185.34 249.02 -185 248 C-184.34 248 -183.68 248 -183 248 C-183.495 244.535 -183.495 244.535 -184 241 C-183.34 241 -182.68 241 -182 241 C-181.67 240.01 -181.34 239.02 -181 238 C-180.34 238 -179.68 238 -179 238 C-179.495 234.535 -179.495 234.535 -180 231 C-179.34 231 -178.68 231 -178 231 C-178 229.68 -178 228.36 -178 227 C-177.34 227 -176.68 227 -176 227 C-175.67 225.68 -175.34 224.36 -175 223 C-174.34 223 -173.68 223 -173 223 C-173.33 221.02 -173.66 219.04 -174 217 C-173.34 217 -172.68 217 -172 217 C-171.67 215.68 -171.34 214.36 -171 213 C-170.34 213 -169.68 213 -169 213 C-169.33 211.02 -169.66 209.04 -170 207 C-169.34 207 -168.68 207 -168 207 C-167.67 206.01 -167.34 205.02 -167 204 C-166.34 204 -165.68 204 -165 204 C-165.495 200.535 -165.495 200.535 -166 197 C-165.34 197 -164.68 197 -164 197 C-163.67 195.68 -163.34 194.36 -163 193 C-162.34 193 -161.68 193 -161 193 C-161.33 191.02 -161.66 189.04 -162 187 C-161.34 187 -160.68 187 -160 187 C-159.67 186.01 -159.34 185.02 -159 184 C-158.34 184 -157.68 184 -157 184 C-157.495 180.535 -157.495 180.535 -158 177 C-157.34 177 -156.68 177 -156 177 C-155.67 176.01 -155.34 175.02 -155 174 C-154.34 174 -153.68 174 -153 174 C-153 172.68 -153 171.36 -153 170 C-152.34 170 -151.68 170 -151 170 C-151.495 167.525 -151.495 167.525 -152 165 C-151.34 165 -150.68 165 -150 165 C-150 163.68 -150 162.36 -150 161 C-149.34 161 -148.68 161 -148 161 C-148 160.34 -148 159.68 -148 159 C-147.34 159 -146.68 159 -146 159 C-146 158.34 -146 157.68 -146 157 C-144.68 157.33 -143.36 157.66 -142 158 C-142 157.34 -142 156.68 -142 156 C-141.34 155.67 -140.68 155.34 -140 155 C-140 154.34 -140 153.68 -140 153 C-138.68 153 -137.36 153 -136 153 C-136 152.34 -136 151.68 -136 151 C-99.7 151 -63.4 151 -26 151 C-25.979375 139.346875 -25.95875 127.69375 -25.9375 115.6875 C-25.928396 112.06998779 -25.91929199 108.45247559 -25.90991211 104.7253418 C-25.88502021 87.33814857 -26.11370484 70.01543109 -26.89697266 52.64237976 C-27.54254721 36.08509442 -27.54254721 36.08509442 -26 33 C-25.77141886 30.9625237 -25.58975722 28.91959697 -25.4375 26.875 C-25.35371094 25.77929688 -25.26992188 24.68359375 -25.18359375 23.5546875 C-25.12300781 22.71164063 -25.06242188 21.86859375 -25 21 C-24.34 21 -23.68 21 -23 21 C-23.33 19.02 -23.66 17.04 -24 15 C-23.34 15 -22.68 15 -22 15 C-21.67 14.34 -21.34 13.68 -21 13 C-20.34 13 -19.68 13 -19 13 C-19.33 11.68 -19.66 10.36 -20 9 C-18.125 7.9375 -18.125 7.9375 -16 7 C-15.01 7.495 -15.01 7.495 -14 8 C-14 7.34 -14 6.68 -14 6 C-13.34 5.67 -12.68 5.34 -12 5 C-12 4.34 -12 3.68 -12 3 C-10.68 3 -9.36 3 -8 3 C-8 2.34 -8 1.68 -8 1 C-5.36 1.33 -2.72 1.66 0 2 C0 1.34 0 0.68 0 0 Z M14 41 C12.70959347 53.42265765 12.70959347 53.42265765 15 65 C15.09664248 67.19321091 15.12631102 69.38945407 15.12698364 71.58479309 C15.12854363 72.26901091 15.13010362 72.95322873 15.13171089 73.65818042 C15.13571488 75.9620019 15.13253351 78.26575805 15.12939453 80.56958008 C15.13074888 82.21691425 15.132529 83.86424813 15.13470459 85.51158142 C15.13927604 89.99513431 15.13749025 94.47866427 15.1343255 98.96221757 C15.13179915 103.64975437 15.13414033 108.33728917 15.13571167 113.02482605 C15.1375331 120.90107578 15.13512832 128.77731614 15.13037109 136.65356445 C15.12493419 145.76028725 15.12668708 154.86698764 15.1321975 163.97370988 C15.13673614 171.78692911 15.13737532 179.6001416 15.13475883 187.41336173 C15.13319947 192.08209995 15.13299286 196.75082765 15.13629532 201.4195652 C15.13918472 205.8115894 15.13717861 210.20358476 15.13140106 214.59560585 C15.13007897 216.20767672 15.13045825 217.81975001 15.13266373 219.43181992 C15.13539698 221.63266469 15.13196738 223.83341709 15.12698364 226.03425598 C15.12660662 227.26593915 15.12622959 228.49762232 15.12584114 229.76662922 C15 233 15 233 14 238 C66.47 238 118.94 238 173 238 C172.67 236.68 172.34 235.36 172 234 C171.90771104 232.25193854 171.8699986 230.50048882 171.875 228.75 C171.87242187 227.85796875 171.86984375 226.9659375 171.8671875 226.046875 C172 223 172 223 172.50021362 219.71524048 C173.30964308 213.34048767 173.13943352 206.9238085 173.12939453 200.50927734 C173.13075138 199.04987037 173.13253291 197.59046373 173.13470459 196.13105774 C173.13924434 192.18703091 173.13750385 188.24303038 173.1343255 184.29900312 C173.13178496 180.16317139 173.13414407 176.02734184 173.13571167 171.89151001 C173.13752801 164.94980466 173.13514067 158.00810998 173.13037109 151.06640625 C173.12492521 143.04793647 173.12669565 135.0294921 173.1321975 127.01102293 C173.13673875 120.11570594 173.13737434 113.2203966 173.13475883 106.32507861 C173.13320219 102.21139842 173.13298559 98.09773017 173.13629532 93.98405075 C173.13918888 90.11805979 173.13717105 86.25210155 173.13140106 82.38611412 C173.13008162 80.96957771 173.13045371 79.55303853 173.13266373 78.13650322 C173.13540718 76.1991066 173.13135275 74.26170394 173.12698364 72.3243103 C173.12660662 71.24145437 173.12622959 70.15859844 173.12584114 69.0429287 C173.06436089 65.94723608 173.06436089 65.94723608 172.42956352 62.72973061 C172 60 172 60 173 58 C173 52.39 173 46.78 173 41 C120.53 41 68.06 41 14 41 Z M-118 193 C-118 193.99 -118 194.98 -118 196 C-118.66 196 -119.32 196 -120 196 C-120 197.65 -120 199.3 -120 201 C-120.66 201 -121.32 201 -122 201 C-122 202.65 -122 204.3 -122 206 C-122.66 206 -123.32 206 -124 206 C-125.60355101 209.50776784 -126.22036864 212.14354879 -126 216 C-126.66 216 -127.32 216 -128 216 C-128 217.65 -128 219.3 -128 221 C-128.66 221 -129.32 221 -130 221 C-130 222.65 -130 224.3 -130 226 C-130.66 226 -131.32 226 -132 226 C-132 227.65 -132 229.3 -132 231 C-132.66 231 -133.32 231 -134 231 C-134 232.65 -134 234.3 -134 236 C-134.66 236 -135.32 236 -136 236 C-136 237.65 -136 239.3 -136 241 C-136.66 241 -137.32 241 -138 241 C-138 242.65 -138 244.3 -138 246 C-138.66 246 -139.32 246 -140 246 C-141.60355101 249.50776784 -142.22036864 252.14354879 -142 256 C-142.66 256 -143.32 256 -144 256 C-144 257.32 -144 258.64 -144 260 C-144.66 260 -145.32 260 -146 260 C-146 261.65 -146 263.3 -146 265 C-146.66 265 -147.32 265 -148 265 C-148 266.65 -148 268.3 -148 270 C-148.66 270 -149.32 270 -150 270 C-150 271.65 -150 273.3 -150 275 C-150.66 275 -151.32 275 -152 275 C-152 276.65 -152 278.3 -152 280 C-152.66 280 -153.32 280 -154 280 C-154 281.65 -154 283.3 -154 285 C-154.66 285 -155.32 285 -156 285 C-156 286.65 -156 288.3 -156 290 C-156.66 290 -157.32 290 -158 290 C-157.67 291.98 -157.34 293.96 -157 296 C-158.485 295.505 -158.485 295.505 -160 295 C-160 296.32 -160 297.64 -160 299 C-160.66 299 -161.32 299 -162 299 C-162 300.65 -162 302.3 -162 304 C-162.66 304 -163.32 304 -164 304 C-164 305.65 -164 307.3 -164 309 C-164.66 309 -165.32 309 -166 309 C-166 310.65 -166 312.3 -166 314 C-166.66 314 -167.32 314 -168 314 C-168 315.65 -168 317.3 -168 319 C-168.66 319 -169.32 319 -170 319 C-170 320.65 -170 322.3 -170 324 C-170.66 324 -171.32 324 -172 324 C-172 325.65 -172 327.3 -172 329 C-172.66 329 -173.32 329 -174 329 C-174 329.99 -174 330.98 -174 332 C-173.42020562 331.83769384 -172.84041125 331.67538768 -172.24304734 331.50816316 C-168.61761506 330.68682021 -164.9457635 330.85682102 -161.24621964 330.8613348 C-160.34845458 330.85849258 -159.45068952 330.85565036 -158.52571946 330.85272202 C-155.4958359 330.84435261 -152.46599045 330.84310505 -149.43609619 330.84178162 C-147.25062365 330.8372178 -145.06515198 330.83221804 -142.87968135 330.82681805 C-136.85728812 330.81320704 -130.83490055 330.80581002 -124.81249595 330.79939139 C-118.32442798 330.79140044 -111.83637185 330.77769818 -105.34831238 330.76467896 C-94.1016913 330.74272595 -82.85506809 330.72472468 -71.60843658 330.70907402 C-59.81102294 330.69264184 -48.01361545 330.67416281 -36.21620941 330.65294075 C-35.48310692 330.65162314 -34.75000444 330.65030554 -33.99468672 330.648948 C-30.27173874 330.64224606 -26.54879083 330.63550746 -22.82584295 330.62875474 C3.55441255 330.58097197 29.93467378 330.53779261 56.31494141 330.49731445 C81.9454795 330.45797617 107.57601285 330.41655646 133.20654297 330.37231445 C133.99637244 330.37095192 134.78620191 330.36958939 135.59996561 330.36818558 C143.53164576 330.35450038 151.46332583 330.34077283 159.39500585 330.32701423 C175.55323346 330.29898652 191.71146155 330.27124159 207.86968994 330.2436676 C208.98412166 330.2417653 208.98412166 330.2417653 210.12106716 330.23982458 C259.74737041 330.15514652 309.37368443 330.07708125 359 330 C359 330.66 359 331.32 359 332 C359.99 332 360.98 332 362 332 C361.855625 331.4225 361.71125 330.845 361.5625 330.25 C361.04166667 328.16666667 360.52083333 326.08333333 360 324 C359.34 324 358.68 324 358 324 C358 322.35 358 320.7 358 319 C357.01 319 356.02 319 355 319 C355.33 317.35 355.66 315.7 356 314 C355.34 314 354.68 314 354 314 C354 312.35 354 310.7 354 309 C353.01 309 352.02 309 351 309 C351.33 308.01 351.66 307.02 352 306 C351.11635178 304.16473062 350.21950366 302.33466768 349.2578125 300.5390625 C346.77683916 295.53088651 344.94672625 290.23382141 343 285 C342.34 285 341.68 285 341 285 C341.33 284.34 341.66 283.68 342 283 C341.45944535 280.99104418 341.45944535 280.99104418 340.5625 278.875 C340.13130859 277.78832031 340.13130859 277.78832031 339.69140625 276.6796875 C339.34916016 275.84824219 339.34916016 275.84824219 339 275 C338.34 275 337.68 275 337 275 C337.33 274.34 337.66 273.68 338 273 C337.26821134 270.92803369 336.44100997 268.8891448 335.5625 266.875 C335.08941406 265.77929688 334.61632812 264.68359375 334.12890625 263.5546875 C333.75636719 262.71164062 333.38382813 261.86859375 333 261 C332.34 261 331.68 261 331 261 C331.33 260.34 331.66 259.68 332 259 C331.45944535 256.99104418 331.45944535 256.99104418 330.5625 254.875 C330.13130859 253.78832031 330.13130859 253.78832031 329.69140625 252.6796875 C329.46324219 252.12539063 329.23507812 251.57109375 329 251 C328.34 251 327.68 251 327 251 C327.04125 250.278125 327.0825 249.55625 327.125 248.8125 C326.99078695 245.79270631 326.24829381 243.73064271 325 241 C324.34 241 323.68 241 323 241 C323.0825 240.360625 323.165 239.72125 323.25 239.0625 C322.8854753 234.59707243 320.94762276 230.99088772 319 227 C318.34 227 317.68 227 317 227 C317.03867187 226.278125 317.07734375 225.55625 317.1171875 224.8125 C316.99050232 221.7720556 316.31737251 219.78510368 315.125 217 C314.77695312 216.175 314.42890625 215.35 314.0703125 214.5 C313.54050781 213.2625 313.54050781 213.2625 313 212 C312.32934801 210.33493299 311.66152583 208.66871381 311 207 C310.34 207 309.68 207 309 207 C309.0825 206.360625 309.165 205.72125 309.25 205.0625 C309.0744356 200.83194199 309.0744356 200.83194199 305 193 C274.31 193 243.62 193 212 193 C212 207.85 212 222.7 212 238 C221.9 238 231.8 238 242 238 C242 238.66 242 239.32 242 240 C243.65 240 245.3 240 247 240 C247 240.66 247 241.32 247 242 C247.639375 242.474375 248.27875 242.94875 248.9375 243.4375 C251 245 251 245 252 248 C252.99 248 253.98 248 255 248 C254.67 248.33 254.34 248.66 254 249 C253.95919217 250.99958364 253.95745644 253.00045254 254 255 C254.66 255 255.32 255 256 255 C256 257.31 256 259.62 256 262 C255.34 262 254.68 262 254 262 C253.34 265.3 252.68 268.6 252 272 C251.34 272 250.68 272 250 272 C249.67 272.66 249.34 273.32 249 274 C247.515 274.495 247.515 274.495 246 275 C246 275.66 246 276.32 246 277 C242.89020801 277.90984804 240.10465296 278.1291178 236.86944962 278.1386652 C235.3056506 278.14687687 235.3056506 278.14687687 233.71025968 278.15525442 C232.5662994 278.15623253 231.42233912 278.15721064 230.24371338 278.15821838 C228.41936425 278.16562535 228.41936425 278.16562535 226.55815959 278.17318195 C223.18092061 278.18589858 219.80372293 278.19418078 216.42646956 278.20060861 C212.78504872 278.20861349 209.14364882 278.22231097 205.50224304 278.23532104 C199.19279893 278.25708254 192.88335269 278.27522823 186.57389069 278.29092598 C177.4514407 278.31362757 168.32901391 278.34177001 159.20658359 278.37124526 C144.40645008 278.4189176 129.60630709 278.46218277 114.80615234 278.50268555 C100.42821515 278.54204229 86.05028638 278.58346894 71.67236328 278.62768555 C70.34323309 278.63177196 70.34323309 278.63177196 68.98725179 278.63594092 C64.54206506 278.64962042 60.09687846 278.66334069 55.65169191 278.67708123 C18.7678121 278.7910404 -18.11608568 278.897851 -55 279 C-55 278.34 -55 277.68 -55 277 C-56.32 277 -57.64 277 -59 277 C-59 276.34 -59 275.68 -59 275 C-60.83333333 272.83333333 -60.83333333 272.83333333 -63 271 C-63.66 271 -64.32 271 -65 271 C-65 270.01 -65 269.02 -65 268 C-65.66 268 -66.32 268 -67 268 C-67 266.68 -67 265.36 -67 264 C-67.66 264 -68.32 264 -69 264 C-69 260.37 -69 256.74 -69 253 C-68.34 253 -67.68 253 -67 253 C-66.63720544 251.71073008 -66.28503302 250.41846728 -65.9375 249.125 C-65.74027344 248.40570313 -65.54304688 247.68640625 -65.33984375 246.9453125 C-64.78867393 244.92726407 -64.78867393 244.92726407 -66 243 C-65.34 243 -64.68 243 -64 243 C-64 242.34 -64 241.68 -64 241 C-63.34 241 -62.68 241 -62 241 C-62 240.34 -62 239.68 -62 239 C-60.35 239.33 -58.7 239.66 -57 240 C-57 239.34 -57 238.68 -57 238 C-46.44 238 -35.88 238 -25 238 C-25 223.15 -25 208.3 -25 193 C-55.69 193 -86.38 193 -118 193 Z M-180 371 C-180 449.87 -180 528.74 -180 610 C-121.48945313 610.09087891 -121.48945313 610.09087891 -61.796875 610.18359375 C-38.63033878 610.22164922 -15.46380306 610.25977177 7.70273089 610.29914629 C21.28532759 610.32222657 34.86792435 610.34526051 48.45052136 610.36815169 C50.0935106 610.37092079 51.73649982 610.37369135 53.37948905 610.37646339 C79.58766238 610.4206695 105.79583953 610.46166326 132.00402061 610.50098413 C158.93221023 610.54140223 185.86039269 610.58506225 212.78857035 610.63282111 C216.58905529 610.63956 220.38954029 610.64626169 224.19002533 610.65294075 C224.93804005 610.65425648 225.68605477 610.65557221 226.4567366 610.6569278 C238.51401935 610.67804032 250.57130483 610.69571946 262.6285948 610.71212531 C274.7403545 610.72867816 286.85210396 610.74882273 298.96385154 610.77266841 C305.53025976 610.78549602 312.09666262 610.79657641 318.66308022 610.80341911 C324.66730856 610.8097111 330.67151064 610.82052605 336.6757246 610.8350333 C338.85478253 610.83948287 341.0338447 610.84223143 343.21290699 610.84316199 C346.16157241 610.84466289 349.110161 610.85220574 352.05881119 610.8613348 C352.91625402 610.86031213 353.77369685 610.85928946 354.65712279 610.85823581 C360.62988189 610.88625989 360.62988189 610.88625989 363.06035636 611.63316316 C365.31670962 612.29416987 365.31670962 612.29416987 368 610 C368.29624136 606.84573865 368.39515095 603.88766575 368.36749268 600.7308197 C368.37076152 599.75793096 368.37403036 598.78504221 368.37739825 597.78267199 C368.384718 594.50201313 368.37048452 591.22179412 368.35644531 587.94116211 C368.35723563 585.59769108 368.35933116 583.25422017 368.36264038 580.91075134 C368.36778946 574.53077873 368.35420931 568.15096648 368.33711338 561.7710197 C368.32363741 555.78343765 368.32332831 549.79586055 368.32273683 543.80826671 C368.32104759 531.94530963 368.30521769 520.08241365 368.28125 508.21948242 C368.25798562 496.69636529 368.24382471 485.17328691 368.24023438 473.65014648 C368.24001161 472.94033239 368.23978884 472.23051829 368.23955932 471.49919467 C368.23911674 470.06935577 368.23867471 468.63951687 368.23823325 467.20967797 C368.23801369 466.50442474 368.23779412 465.7991715 368.2375679 465.07254696 C368.23735192 464.3691256 368.23713593 463.66570424 368.2369134 462.94096708 C368.23299285 451.31345194 368.22029222 439.68594445 368.20722103 428.05843663 C368.20311419 424.07936773 368.20019256 420.10029921 368.19742584 416.12122917 C368.19254668 409.88082591 368.18236679 403.64045285 368.16798782 397.40006447 C368.16344996 395.10259143 368.16062267 392.80511431 368.15958023 390.50763702 C368.15784528 387.38579283 368.14999101 384.26402525 368.14044189 381.14219666 C368.14130838 380.22042804 368.14217486 379.29865943 368.1430676 378.34895843 C368.52608016 374.35629987 368.52608016 374.35629987 367 371 C364.10363476 370.9009455 361.23108744 370.8682545 358.33425045 370.87695217 C357.4095562 370.87579833 356.48486195 370.87464448 355.53214666 370.87345567 C352.39258366 370.87078098 349.2530706 370.87531813 346.11351013 370.87974548 C343.85638115 370.87930996 341.59925223 370.87843539 339.34212357 370.87715632 C333.10771565 370.87490774 326.87332474 370.87893757 320.638919 370.88393438 C314.61609318 370.88779266 308.59326926 370.8869752 302.57044271 370.88625254 C290.24432622 370.8849365 277.91821508 370.88828814 265.59210014 370.89426994 C253.3819215 370.90018034 241.17174508 370.90403455 228.96156502 370.90512276 C227.82417059 370.90522587 227.82417059 370.90522587 226.66379851 370.90533106 C222.8132029 370.90566938 218.96260729 370.90597077 215.11201168 370.90625793 C187.81498869 370.90836018 160.51796861 370.91510264 133.22094727 370.92456055 C106.69685888 370.93374006 80.17277129 370.94082608 53.64868164 370.94506836 C52.42300605 370.94526565 52.42300605 370.94526565 51.17256934 370.94546692 C42.96698921 370.94678541 34.76140907 370.94806123 26.55582893 370.94930578 C9.83906352 370.95184222 -6.87770183 370.95466347 -23.59446716 370.95765686 C-24.36313231 370.95779415 -25.13179747 370.95793144 -25.9237555 370.95807289 C-49.49145279 370.96229726 -73.05914958 370.96772921 -96.62684631 370.97434998 C-97.29615884 370.97453753 -97.96547137 370.97472509 -98.6550661 370.97491833 C-125.77004429 370.9825349 -152.8850221 370.99142795 -180 371 Z " fill="#010101" transform="translate(323,102)"/>
<path d="M0 0 C182.16 0 364.32 0 552 0 C552 80.52 552 161.04 552 244 C551.67 244 551.34 244 551 244 C550.67 164.47 550.34 84.94 550 3 C369.16 2.67 188.32 2.34 2 2 C2.33 81.86 2.66 161.72 3 244 C2.01 244 1.02 244 0 244 C0 163.48 0 82.96 0 0 Z " fill="#5A5A5A" transform="translate(140,471)"/>
<path d="M0 0 C53.46 0 106.92 0 162 0 C162 0.66 162 1.32 162 2 C109.2 2 56.4 2 2 2 C2.33 4.97 2.66 7.94 3 11 C3.04002169 13.47884361 3.04343984 15.95871394 3 18.4375 C2.75266955 22.88310287 2.75266955 22.88310287 4 27 C4.09878088 29.19091522 4.13072286 31.38492506 4.13371277 33.57806396 C4.13597833 34.26157622 4.13824388 34.94508847 4.14057809 35.64931321 C4.1469327 37.95079607 4.14608779 40.25222025 4.14526367 42.55371094 C4.14825433 44.19942298 4.15165664 45.84513432 4.15544128 47.49084473 C4.1642968 51.97032888 4.1666201 56.44979394 4.16725707 60.929286 C4.1682053 64.66675655 4.17188276 68.40422262 4.17542917 72.14169145 C4.18358024 80.96067419 4.18601287 89.77964673 4.18530273 98.59863281 C4.18470232 107.69740033 4.19524538 116.79610849 4.2110464 125.89486098 C4.22412321 133.70300124 4.22948654 141.51112211 4.22884732 149.31927323 C4.2285923 153.9841484 4.23144558 158.64897088 4.24202538 163.31383514 C4.25170827 167.70342261 4.2517842 172.09290707 4.24450874 176.48249817 C4.24346302 178.09253846 4.24582508 179.70258516 4.2518692 181.31261444 C4.25959418 183.51319772 4.25494108 185.71342575 4.24723816 187.91400146 C4.24778293 189.14476284 4.24832769 190.37552422 4.24888897 191.64358139 C4 195 4 195 2 201 C54.8 201 107.6 201 162 201 C162 201.33 162 201.66 162 202 C108.54 202 55.08 202 0 202 C0 135.34 0 68.68 0 0 Z " fill="#303030" transform="translate(335,140)"/>
<path d="M0 0 C0.79664062 0.34933594 1.59328125 0.69867187 2.4140625 1.05859375 C3.47367187 1.51363281 4.53328125 1.96867188 5.625 2.4375 C7.19121094 3.11619141 7.19121094 3.11619141 8.7890625 3.80859375 C14.98772109 6.10858264 20.98326755 6.14378368 27.50572681 6.12863445 C28.93789844 6.13126401 28.93789844 6.13126401 30.39900282 6.13394669 C33.61089035 6.13861311 36.82273275 6.13613952 40.03462219 6.13371277 C42.35564927 6.13558041 44.67667604 6.13788093 46.9977023 6.14057809 C52.71565328 6.14606507 58.4335917 6.14687724 64.15154488 6.14571724 C71.00051302 6.14458113 77.84947418 6.14922124 84.69844031 6.1539966 C98.89907595 6.16367111 113.09970798 6.16648088 127.30034653 6.16705366 C138.26599385 6.16751307 149.23163975 6.16957072 160.19728661 6.17275429 C163.35287497 6.17365182 166.50846334 6.17454163 169.66405171 6.17542917 C170.8407586 6.17576074 170.8407586 6.17576074 172.04123734 6.17609901 C194.10906904 6.18225381 216.17690026 6.18619951 238.24473286 6.18575573 C239.07686012 6.18574015 239.90898739 6.18572457 240.76633063 6.18570852 C244.98397125 6.18562541 249.20161187 6.18552637 253.41925249 6.18542381 C254.25690271 6.18540387 255.09455293 6.18538392 255.95758648 6.18536337 C257.65151946 6.18532294 259.34545244 6.18528114 261.03938542 6.18523798 C287.39662379 6.18462517 313.7538493 6.1921326 340.11108398 6.20581055 C369.71794799 6.22116851 399.32480355 6.22977695 428.9316718 6.22884732 C432.08820323 6.22877269 435.24473466 6.22872399 438.4012661 6.22869301 C439.17849401 6.22868135 439.95572192 6.2286697 440.75650219 6.22865769 C453.2680941 6.22862691 465.77967484 6.23501476 478.29126343 6.24362527 C490.86390039 6.25209889 503.43652101 6.25309398 516.00915924 6.24651595 C522.82130268 6.24314405 529.6334032 6.24321938 536.44554329 6.2518692 C542.67987447 6.25970405 548.91413286 6.2583337 555.1484622 6.24958507 C557.40549432 6.24804342 559.66253179 6.24989113 561.91955761 6.25544515 C564.9853767 6.26249058 568.05093943 6.25722292 571.11674976 6.24888897 C571.99463804 6.25385715 572.87252631 6.25882533 573.77701727 6.26394406 C581.60148967 6.21892468 588.64135135 4.64156618 596 2 C596 2.99 596 3.98 596 5 C595.01 5 594.02 5 593 5 C593 5.66 593 6.32 593 7 C591.865625 7.144375 590.73125 7.28875 589.5625 7.4375 C586.19222799 7.61171478 586.19222799 7.61171478 585 9 C581.98516527 9.10003085 578.99317313 9.1335854 575.97784424 9.12584114 C575.01461699 9.12729458 574.05138974 9.12874802 573.05897379 9.13024551 C569.78832395 9.1339335 566.51771991 9.13040622 563.24707031 9.12698364 C560.8957835 9.12813436 558.54449686 9.12972154 556.1932106 9.13171089 C551.05889321 9.13503126 545.92458537 9.13520533 540.79026794 9.13266373 C533.15559103 9.12889458 525.52092305 9.13080801 517.8862462 9.13387203 C504.25387719 9.13914907 490.62151284 9.1386769 476.98914337 9.13579312 C465.05953421 9.1332818 453.12992676 9.13261888 441.20031738 9.13381577 C440.41031358 9.13389215 439.62030978 9.13396854 438.80636647 9.13404724 C435.59982906 9.13435855 432.39329165 9.13467695 429.18675424 9.135007 C399.08065875 9.13806895 368.97456624 9.13528787 338.86847121 9.1299101 C312.09590629 9.12516417 285.32334613 9.12558879 258.55078125 9.13037109 C228.50125429 9.13572076 198.45172997 9.13785183 168.40220261 9.13475883 C165.20136261 9.13443809 162.00052261 9.13412525 158.79968262 9.13381577 C158.01150077 9.13373669 157.22331892 9.13365761 156.41125277 9.13357614 C144.48644806 9.13243661 132.56164526 9.13377276 120.63684082 9.13629532 C107.08362757 9.13914798 93.53041975 9.13845388 79.97720718 9.13301457 C72.3833473 9.13006783 64.78949915 9.12990161 57.19563957 9.13366075 C51.54100753 9.13615223 45.88638777 9.13347036 40.23175764 9.12868617 C37.93232349 9.12756084 35.63288778 9.12815571 33.33345461 9.13056196 C30.22966519 9.13356301 27.12594162 9.13052453 24.02215576 9.12584114 C23.11059172 9.12818231 22.19902768 9.13052347 21.25984049 9.13293558 C15.11415034 9.11415034 15.11415034 9.11415034 14 8 C12.9275 7.855625 11.855 7.71125 10.75 7.5625 C7.47766726 7.07165009 4.98738612 6.35790278 2 5 C2 4.01 2 3.02 2 2 C1.34 2 0.68 2 0 2 C0 1.34 0 0.68 0 0 Z " fill="#767676" transform="translate(117,744)"/>
<path d="M0 0 C2 2 2 2 2 5 C2.66 5 3.32 5 4 5 C4 7.31 4 9.62 4 12 C3.34 12 2.68 12 2 12 C2.061875 13.36125 2.061875 13.36125 2.125 14.75 C2.00468444 17.8782046 1.6085292 19.38614006 0 22 C-0.66 22 -1.32 22 -2 22 C-2.33 22.99 -2.66 23.98 -3 25 C-3.99 25 -4.98 25 -6 25 C-6 25.66 -6 26.32 -6 27 C-9.16822345 28.85757021 -11.47645182 29.24917668 -15.13055038 29.24609566 C-16.6943494 29.2520688 -16.6943494 29.2520688 -18.28974032 29.25816262 C-20.00568074 29.24942409 -20.00568074 29.24942409 -21.75628662 29.24050903 C-22.97251937 29.24221788 -24.18875212 29.24392673 -25.44184041 29.24568737 C-28.81915674 29.24841508 -32.19624201 29.24215311 -35.57353044 29.23213124 C-39.21493926 29.22350347 -42.85634079 29.22641643 -46.49775696 29.22793579 C-52.80722498 29.22898507 -59.11665168 29.222704 -65.42610931 29.21146011 C-74.54854738 29.19521388 -83.67096544 29.18999801 -92.79341641 29.18748413 C-107.59357149 29.18310565 -122.39370454 29.1697924 -137.19384766 29.15087891 C-151.57177622 29.13252407 -165.9496988 29.11836562 -180.32763672 29.10986328 C-181.65676691 29.10907511 -181.65676691 29.10907511 -183.01274821 29.10827102 C-187.4579348 29.10566096 -191.90312143 29.10313354 -196.34830809 29.10064721 C-233.23222095 29.07990995 -270.11610876 29.04468025 -307 29 C-307 28.34 -307 27.68 -307 27 C-308.32 27 -309.64 27 -311 27 C-311 26.01 -311 25.02 -311 24 C-310.08910583 24.1619646 -309.17821165 24.3239292 -308.23971462 24.49080181 C-302.89818713 25.24697179 -297.54933393 25.14806828 -292.16456604 25.14717102 C-290.97591586 25.15084771 -289.78726567 25.1545244 -288.56259578 25.1583125 C-285.27599187 25.16740111 -281.98941731 25.17204055 -278.70280302 25.17470181 C-275.15331148 25.17862053 -271.60383419 25.18819729 -268.05435181 25.19691467 C-259.4920917 25.21662845 -250.92983049 25.22673595 -242.36755338 25.23564246 C-238.33250264 25.24003117 -234.2974532 25.24539623 -230.26240349 25.25063133 C-216.84644245 25.26763373 -203.43048221 25.28212948 -190.01451206 25.28938007 C-186.53726259 25.29128984 -183.06001312 25.2932102 -179.58276367 25.29516602 C-178.71855177 25.29564976 -177.85433986 25.2961335 -176.96393972 25.2966319 C-162.95355236 25.30493843 -148.94325021 25.33029027 -134.93290008 25.36274669 C-120.54080019 25.39581533 -106.14874364 25.4138284 -91.75660557 25.41702431 C-83.67898225 25.41918891 -75.60148343 25.42793086 -67.52389717 25.45348549 C-60.64789311 25.47518929 -53.77204383 25.48324428 -46.89600939 25.47351871 C-43.38911217 25.46897388 -39.88253434 25.47087063 -36.37568092 25.49028015 C-32.57098934 25.50792574 -28.76710923 25.50092785 -24.9624176 25.48774719 C-23.30613503 25.50420106 -23.30613503 25.50420106 -21.6163922 25.52098733 C-14.91555599 25.46490589 -10.79015923 24.37655671 -5 21 C-4.34 21 -3.68 21 -3 21 C-0.89627565 15.81081326 0.11832922 11.95125106 0.0625 6.3125 C0.04896484 4.54326172 0.04896484 4.54326172 0.03515625 2.73828125 C0.02355469 1.83464844 0.01195312 0.93101562 0 0 Z " fill="#595959" transform="translate(575,352)"/>
<path d="M0 0 C31.68 0 63.36 0 96 0 C96 0.66 96 1.32 96 2 C64.65 2 33.3 2 1 2 C0.67 4.97 0.34 7.94 0 11 C-0.66 11 -1.32 11 -2 11 C-2 12.65 -2 14.3 -2 16 C-2.66 16 -3.32 16 -4 16 C-4.144375 16.721875 -4.28875 17.44375 -4.4375 18.1875 C-4.95833333 20.79166667 -5.47916667 23.39583333 -6 26 C-6.66 26 -7.32 26 -8 26 C-8 27.65 -8 29.3 -8 31 C-8.66 31 -9.32 31 -10 31 C-10 32.65 -10 34.3 -10 36 C-10.66 36 -11.32 36 -12 36 C-12 37.65 -12 39.3 -12 41 C-12.66 41 -13.32 41 -14 41 C-14 42.65 -14 44.3 -14 46 C-14.66 46 -15.32 46 -16 46 C-16 47.65 -16 49.3 -16 51 C-16.66 51 -17.32 51 -18 51 C-18 52.65 -18 54.3 -18 56 C-18.66 56 -19.32 56 -20 56 C-20.144375 56.721875 -20.28875 57.44375 -20.4375 58.1875 C-20.95833333 60.79166667 -21.47916667 63.39583333 -22 66 C-22.66 66 -23.32 66 -24 66 C-24 67.32 -24 68.64 -24 70 C-24.66 70 -25.32 70 -26 70 C-26 71.65 -26 73.3 -26 75 C-26.66 75 -27.32 75 -28 75 C-28 76.65 -28 78.3 -28 80 C-28.66 80 -29.32 80 -30 80 C-30 81.65 -30 83.3 -30 85 C-30.66 85 -31.32 85 -32 85 C-32 86.65 -32 88.3 -32 90 C-32.66 90 -33.32 90 -34 90 C-34 91.65 -34 93.3 -34 95 C-34.66 95 -35.32 95 -36 95 C-36 96.65 -36 98.3 -36 100 C-36.66 100 -37.32 100 -38 100 C-37.67 101.98 -37.34 103.96 -37 106 C-37.66 106 -38.32 106 -39 106 C-39.33 106.99 -39.66 107.98 -40 109 C-40.66 109 -41.32 109 -42 109 C-42 110.65 -42 112.3 -42 114 C-42.66 114 -43.32 114 -44 114 C-44 115.65 -44 117.3 -44 119 C-44.66 119 -45.32 119 -46 119 C-46 120.65 -46 122.3 -46 124 C-46.66 124 -47.32 124 -48 124 C-48 125.65 -48 127.3 -48 129 C-48.66 129 -49.32 129 -50 129 C-50 130.65 -50 132.3 -50 134 C-50.66 134 -51.32 134 -52 134 C-51.67 135.98 -51.34 137.96 -51 140 C-52.32 139.67 -53.64 139.34 -55 139 C-55 140.32 -55 141.64 -55 143 C-55.66 143 -56.32 143 -57 143 C-56.45283792 137.92117202 -55.2977126 133.78253349 -53.2890625 129.09375 C-53.00957764 128.43337738 -52.73009277 127.77300476 -52.44213867 127.09262085 C-51.83215419 125.65287562 -51.21859271 124.21464178 -50.60186768 122.777771 C-48.88247261 118.76864233 -47.19294496 114.74691462 -45.5 110.7265625 C-45.13734039 109.86700958 -44.77468079 109.00745667 -44.40103149 108.12185669 C-40.03466759 97.74994259 -35.83055296 87.31289395 -31.625 76.875 C-30.82429625 74.89026821 -30.02351483 72.90556776 -29.22265625 70.92089844 C-26.40868824 63.94527986 -23.59829985 56.96822049 -20.78808594 49.99108887 C-18.43740953 44.1554256 -16.08470127 38.32058971 -13.72918701 32.48687744 C-12.6569091 29.82909103 -11.58742654 27.17019188 -10.51806641 24.51123047 C-9.85854753 22.87721846 -9.19888724 21.24326352 -8.5390625 19.609375 C-8.25337402 18.89675507 -7.96768555 18.18413513 -7.67333984 17.44992065 C-5.28072267 11.53952497 -2.64664313 5.82261489 0 0 Z " fill="#575757" transform="translate(203,292)"/>
<path d="M0 0 C1.98 0 3.96 0 6 0 C6.0825 0.5775 6.165 1.155 6.25 1.75 C7.2026631 4.60798931 8.86053074 5.92954588 11 8 C11 8.66 11 9.32 11 10 C11.66 10 12.32 10 13 10 C13 10.99 13 11.98 13 13 C13.99 12.67 14.98 12.34 16 12 C15.95117188 15.07617188 15.95117188 15.07617188 15.90234375 18.15234375 C15.79438816 20.01732141 15.79438816 20.01732141 17 21 C17.09605864 22.63223456 17.12187821 24.2686439 17.12025452 25.90370178 C17.12162918 26.96525986 17.12300385 28.02681793 17.12442017 29.12054443 C17.12082489 30.29514221 17.11722961 31.46973999 17.11352539 32.67993164 C17.11367142 33.90902756 17.11381744 35.13812347 17.1139679 36.40446472 C17.11338892 39.78448672 17.10835964 43.16444829 17.10139394 46.54445958 C17.09515988 50.07321194 17.09455656 53.60196503 17.09336853 57.13072205 C17.09025537 63.81723119 17.08204218 70.50372406 17.07201904 77.19022602 C17.05877206 86.2226555 17.05335787 95.2550894 17.04751682 104.28752613 C17.03810228 118.52502962 17.01818327 132.76249876 17 147 C52.97 147 88.94 147 126 147 C126 147.66 126 148.32 126 149 C127.32 149 128.64 149 130 149 C130.99 151.475 130.99 151.475 132 154 C131.33437892 153.71758327 130.66875784 153.43516655 129.98296642 153.14419174 C123.10406315 150.4082498 117.29552938 149.41554039 109.92895508 149.45410156 C108.88371674 149.44376389 107.83847839 149.43342621 106.76156616 149.42277527 C103.34739335 149.3935565 99.93381876 149.3918525 96.51953125 149.390625 C94.13627506 149.37562927 91.75302921 149.35889922 89.36979675 149.34051514 C83.12771097 149.29698627 76.88576535 149.27687449 70.64355469 149.26177979 C64.26163495 149.24215656 57.87986543 149.20019242 51.49804688 149.16015625 C38.99874442 149.08501073 26.49947583 149.03462445 14 149 C13.99945523 148.33923273 13.99891047 147.67846546 13.99834919 146.99767494 C13.98335382 130.88775905 13.94079613 114.77818404 13.86790943 98.66843605 C13.83331949 90.87772138 13.80791182 83.08718254 13.80444336 75.29638672 C13.80139508 68.50250262 13.78078921 61.70893217 13.73947543 54.91516912 C13.71822143 51.32090901 13.70550519 47.72709392 13.71384621 44.13277054 C13.72284902 40.11102791 13.69263686 36.09046346 13.65942383 32.06884766 C13.67236229 30.29938278 13.67236229 30.29938278 13.68556213 28.49417114 C13.56657168 19.87324223 11.69024892 13.01870039 5.76171875 6.5625 C5.07722656 6.046875 4.39273438 5.53125 3.6875 5 C2.43136204 4.03409725 1.19342452 3.04239561 0 2 C0 1.34 0 0.68 0 0 Z " fill="#4E4E4E" transform="translate(518,107)"/>
<path d="M0 0 C0.66 0 1.32 0 2 0 C2.04577514 35.80597494 2.08101804 71.61194474 2.10213066 107.41794292 C2.10463208 111.64492098 2.10722072 115.87189898 2.10986328 120.09887695 C2.1103879 120.94039415 2.11091252 121.78191134 2.11145304 122.64892905 C2.12015626 136.27564682 2.13592579 149.90234772 2.15430559 163.52905548 C2.17300693 177.51073166 2.18411722 191.49239901 2.18817699 205.47408718 C2.19092156 214.10191193 2.19959094 222.72968899 2.21583293 231.35749906 C2.2264027 237.27346183 2.22960064 243.18939995 2.22700275 249.10537148 C2.22572145 252.51884554 2.22768932 255.93223625 2.23841095 259.3456955 C2.24834406 263.04799971 2.24597465 266.75009899 2.24050903 270.45240784 C2.24633472 271.52926537 2.2521604 272.6061229 2.25816262 273.71561247 C2.22554437 281.87615989 0.90368262 287.72495513 -3 295 C-3.66 295 -4.32 295 -5 295 C-5 295.66 -5 296.32 -5 297 C-6.75 298.5078125 -6.75 298.5078125 -9 300.125 C-9.7425 300.66382813 -10.485 301.20265625 -11.25 301.7578125 C-11.8275 302.16773438 -12.405 302.57765625 -13 303 C-13.66 302.67 -14.32 302.34 -15 302 C-14.46890625 301.5153125 -13.9378125 301.030625 -13.390625 300.53125 C-5.86244669 293.38772314 -1.59278631 285.98106468 -0.80968547 275.43767262 C-0.73254239 272.45162774 -0.71606673 269.4710575 -0.7215271 266.48400879 C-0.7157347 265.34194583 -0.7099423 264.19988288 -0.70397437 263.02321196 C-0.68700392 259.20620102 -0.68410035 255.38931121 -0.68115234 251.57226562 C-0.67295082 248.83219609 -0.66177009 246.09214059 -0.65071106 243.3520813 C-0.62847743 237.45795705 -0.61344076 231.56385005 -0.60334396 225.66969299 C-0.58873536 217.14782217 -0.56319245 208.62601146 -0.53501268 200.10417598 C-0.48958428 186.27682337 -0.45295316 172.44946208 -0.421875 158.62207031 C-0.39167326 145.19301837 -0.35731553 131.76398762 -0.31738281 118.33496094 C-0.31492126 117.50667795 -0.31245972 116.67839497 -0.30992357 115.82501251 C-0.29754866 111.66960557 -0.28509218 107.51419888 -0.27259517 103.3587923 C-0.16908656 68.90589049 -0.07986381 34.45296456 0 0 Z " fill="#7F7F7F" transform="translate(729,443)"/>
<path d="M0 0 C0.73125359 -0.00155999 1.46250718 -0.00311998 2.21591997 -0.00472724 C4.67875688 -0.00873216 7.1415327 -0.00554956 9.60437012 -0.00241089 C11.36494483 -0.00376515 13.12551925 -0.00554523 14.88609314 -0.00772095 C19.67728554 -0.01229227 24.46845649 -0.01050695 29.25964928 -0.00734186 C34.264897 -0.00481671 39.27014284 -0.00715623 44.27539062 -0.00872803 C52.68209158 -0.01054927 61.08878377 -0.0081446 69.4954834 -0.00338745 C79.22597027 0.00205508 88.95643619 0.00029239 98.68692255 -0.00521386 C107.02917743 -0.00974628 115.37142599 -0.0103949 123.7136817 -0.00777519 C128.7014637 -0.00621313 133.68923584 -0.00601672 138.67701721 -0.00931168 C143.36533149 -0.01219225 148.05361867 -0.01021124 152.74193001 -0.00441742 C154.46652748 -0.00309083 156.19112722 -0.00348224 157.9157238 -0.00568008 C160.26212507 -0.00839552 162.60843838 -0.00500559 164.95483398 0 C166.92818348 0.00056554 166.92818348 0.00056554 168.94139862 0.0011425 C171.97741699 0.12698364 171.97741699 0.12698364 173.97741699 1.12698364 C173.97741699 1.78698364 173.97741699 2.44698364 173.97741699 3.12698364 C113.58741699 3.12698364 53.19741699 3.12698364 -9.02258301 3.12698364 C-9.02258301 2.46698364 -9.02258301 1.80698364 -9.02258301 1.12698364 C-6.03636942 -0.36612315 -3.33227208 0.00095499 0 0 Z " fill="#282929" transform="translate(333.0225830078125,101.87301635742188)"/>
<path d="M0 0 C53.46 0 106.92 0 162 0 C162 0.66 162 1.32 162 2 C81.81 2.495 81.81 2.495 0 3 C0 2.01 0 1.02 0 0 Z " fill="#6A6A6A" transform="translate(335,140)"/>
<path d="M0 0 C30.36 0 60.72 0 92 0 C92 0.66 92 1.32 92 2 C62.3 2 32.6 2 2 2 C2 17.84 2 33.68 2 50 C1.34 50 0.68 50 0 50 C0 33.5 0 17 0 0 Z " fill="#727172" transform="translate(532,292)"/>
<path d="M0 0 C36.96 0.33 73.92 0.66 112 1 C112 1.66 112 2.32 112 3 C110.70453751 3.00808685 109.40907501 3.01617371 108.07435608 3.02450562 C95.84795624 3.10209112 83.62166599 3.1898617 71.39540958 3.28752708 C65.11022702 3.33740892 58.8250606 3.38373973 52.53979492 3.421875 C46.47077988 3.45883018 40.40190265 3.50521798 34.33300591 3.55806351 C32.02107607 3.57655311 29.70911676 3.59168098 27.39714241 3.60334396 C24.1514191 3.62029946 20.90600769 3.64935704 17.66040039 3.68115234 C16.71093033 3.68331253 15.76146027 3.68547272 14.78321838 3.68769836 C8.91265672 3.76085271 3.69198293 4.54487391 -2 6 C-2 4 -2 4 0 2 C0 1.34 0 0.68 0 0 Z " fill="#171717" transform="translate(187,253)"/>
<path d="M0 0 C2 1.1875 2 1.1875 4 3 C4.25 5.6875 4.25 5.6875 4 8 C4.66 8 5.32 8 6 8 C7.49821059 11.37097383 8 13.20442119 8 17 C8.66 17 9.32 17 10 17 C10 18.98 10 20.96 10 23 C10.66 23 11.32 23 12 23 C12.67528223 24.57967807 13.33989694 26.16391903 14 27.75 C14.37125 28.63171875 14.7425 29.5134375 15.125 30.421875 C16 33 16 33 16 37 C16.66 37 17.32 37 18 37 C18 38.65 18 40.3 18 42 C18.66 42 19.32 42 20 42 C20 43.65 20 45.3 20 47 C20.66 47 21.32 47 22 47 C22.26554688 47.55429687 22.53109375 48.10859375 22.8046875 48.6796875 C23.15789063 49.40414062 23.51109375 50.12859375 23.875 50.875 C24.22304688 51.59429687 24.57109375 52.31359375 24.9296875 53.0546875 C25.96557543 55.15135019 25.96557543 55.15135019 28 57 C27.34 57 26.68 57 26 57 C26.495 57.928125 26.99 58.85625 27.5 59.8125 C29 63 29 63 29 66 C29.66 66.33 30.32 66.66 31 67 C31.6328125 69.94140625 31.6328125 69.94140625 32.125 73.5625 C32.37636719 75.35880859 32.37636719 75.35880859 32.6328125 77.19140625 C32.75398437 78.11824219 32.87515625 79.04507813 33 80 C30.12570789 76.60057622 28.56334867 72.87896103 26.953125 68.78125 C26.66476273 68.0625473 26.37640045 67.3438446 26.07929993 66.60336304 C25.13097102 64.23763015 24.19056228 61.86883012 23.25 59.5 C21.91352413 56.15749968 20.57247718 52.81684486 19.23046875 49.4765625 C18.88648544 48.61918488 18.54250214 47.76180725 18.18809509 46.87844849 C15.734868 40.78003207 13.22362225 34.70788918 10.67578125 28.6484375 C10.32842926 27.82148376 9.98107727 26.99453003 9.62319946 26.14251709 C8.27138988 22.92726683 6.91816132 19.71267657 5.55505371 16.50219727 C4.61692829 14.29235961 3.68497813 12.08000407 2.75390625 9.8671875 C2.4733992 9.21261566 2.19289215 8.55804382 1.90388489 7.88363647 C0.72495394 5.07022134 0 3.086743 0 0 Z " fill="#3E3E3E" transform="translate(679,318)"/>
<path d="M0 0 C1.98 0 3.96 0 6 0 C6.0825 0.5775 6.165 1.155 6.25 1.75 C7.2026631 4.60798931 8.86053074 5.92954588 11 8 C11 8.66 11 9.32 11 10 C11.66 10 12.32 10 13 10 C13 10.99 13 11.98 13 13 C13.99 12.67 14.98 12.34 16 12 C15.95117188 15.07617188 15.95117188 15.07617188 15.90234375 18.15234375 C15.79438816 20.01732141 15.79438816 20.01732141 17 21 C17.09611419 22.6575762 17.12187755 24.31926986 17.12025452 25.97962952 C17.12162918 27.0580159 17.12300385 28.13640228 17.12442017 29.24746704 C17.12082489 30.4407663 17.11722961 31.63406555 17.11352539 32.86352539 C17.11367142 34.11212845 17.11381744 35.36073151 17.1139679 36.64717102 C17.11338891 40.08090994 17.10835955 43.51458938 17.10139394 46.94831777 C17.09515998 50.53312459 17.09455657 54.11793213 17.09336853 57.70274353 C17.09025534 64.49550045 17.08204212 71.28824135 17.07201904 78.08099121 C17.06085753 85.81242494 17.05534736 93.54385942 17.05032361 101.27529919 C17.03985949 117.18354208 17.02226029 133.09176898 17 149 C16.67 149 16.34 149 16 149 C16.00129882 148.35745931 16.00259764 147.71491861 16.00393581 147.05290699 C16.03322707 131.36749789 16.02362409 115.68265644 15.97153378 99.99732685 C15.94726556 92.41174893 15.93582361 84.82656894 15.95532227 77.2409668 C15.97229801 70.62387983 15.96444832 64.00734991 15.92765242 57.39033574 C15.9090394 53.89136606 15.90227074 50.39333684 15.92530632 46.89437294 C16.69382935 26.61641037 16.69382935 26.61641037 8 9 C5.90961367 6.92419804 3.85976801 5.03530999 1.50390625 3.26953125 C1.00761719 2.85058594 0.51132812 2.43164062 0 2 C0 1.34 0 0.68 0 0 Z " fill="#272726" transform="translate(518,107)"/>
<path d="M0 0 C2.31 0.33 4.62 0.66 7 1 C6.01 1.495 6.01 1.495 5 2 C5 2.66 5 3.32 5 4 C56.15 4 107.3 4 160 4 C160 4.33 160 4.66 160 5 C108.52 5 57.04 5 4 5 C4 4.34 4 3.68 4 3 C2.68 3 1.36 3 0 3 C0 2.01 0 1.02 0 0 Z " fill="#1F1F1F" transform="translate(264,376)"/>
<path d="M0 0 C2 3.75 2 3.75 2 6 C1.34 6 0.68 6 0 6 C-0.33 6.99 -0.66 7.98 -1 9 C-1.66 9 -2.32 9 -3 9 C-3 10.65 -3 12.3 -3 14 C-3.66 14 -4.32 14 -5 14 C-5 15.65 -5 17.3 -5 19 C-5.66 19 -6.32 19 -7 19 C-7 20.65 -7 22.3 -7 24 C-7.66 24 -8.32 24 -9 24 C-9 25.65 -9 27.3 -9 29 C-9.66 29 -10.32 29 -11 29 C-11 30.65 -11 32.3 -11 34 C-11.66 34 -12.32 34 -13 34 C-12.67 35.98 -12.34 37.96 -12 40 C-13.32 39.67 -14.64 39.34 -16 39 C-16 40.32 -16 41.64 -16 43 C-16.66 43 -17.32 43 -18 43 C-17.44202 37.48009617 -16.00512833 32.96776502 -13.83984375 27.87890625 C-13.37584923 26.76176491 -13.37584923 26.76176491 -12.90248108 25.62205505 C-11.92172692 23.2656233 -10.9298311 20.91407655 -9.9375 18.5625 C-9.26683378 16.95669088 -8.59690434 15.35057383 -7.92773438 13.74414062 C-6.29365513 9.82581462 -4.64957324 5.91182698 -3 2 C-2.34 2.33 -1.68 2.66 -1 3 C-0.67 2.01 -0.34 1.02 0 0 Z " fill="#414141" transform="translate(164,392)"/>
<path d="M0 0 C0.33 0 0.66 0 1 0 C1.05083907 6.99256271 1.08579201 13.98507748 1.10986328 20.9777832 C1.11990158 23.35507997 1.13353504 25.73236445 1.15087891 28.10961914 C1.17522241 31.53274576 1.18650505 34.95570866 1.1953125 38.37890625 C1.20563507 39.43646622 1.21595764 40.49402618 1.22659302 41.58363342 C1.22783593 49.81566652 -0.06275237 55.66240215 -4 63 C-4.66 63 -5.32 63 -6 63 C-6 63.66 -6 64.32 -6 65 C-7.75 66.5078125 -7.75 66.5078125 -10 68.125 C-10.7425 68.66382813 -11.485 69.20265625 -12.25 69.7578125 C-12.8275 70.16773438 -13.405 70.57765625 -14 71 C-14.66 70.67 -15.32 70.34 -16 70 C-15.46890625 69.5153125 -14.9378125 69.030625 -14.390625 68.53125 C-7.21256598 61.71995312 -4.05674467 55.59814182 -2 46 C-1.34 46 -0.68 46 0 46 C0 30.82 0 15.64 0 0 Z " fill="#2C2C2C" transform="translate(730,675)"/>
<path d="M0 0 C1.98 0.99 1.98 0.99 4 2 C4 3.32 4 4.64 4 6 C4.66 6 5.32 6 6 6 C6.67528223 7.57967807 7.33989694 9.16391903 8 10.75 C8.37125 11.63171875 8.7425 12.5134375 9.125 13.421875 C10 16 10 16 10 20 C10.66 20 11.32 20 12 20 C12 21.65 12 23.3 12 25 C12.66 25 13.32 25 14 25 C14 26.65 14 28.3 14 30 C14.66 30 15.32 30 16 30 C16 31.65 16 33.3 16 35 C16.66 35 17.32 35 18 35 C18.53341184 36.57914015 19.05125763 38.16354387 19.5625 39.75 C19.85253906 40.63171875 20.14257812 41.5134375 20.44140625 42.421875 C21.02820739 45.13018796 20.75639869 46.39972846 20 49 C19.50072998 47.78940918 19.00145996 46.57881836 18.48706055 45.33154297 C16.6274871 40.824267 14.76498434 36.31820635 12.90161133 31.8125 C12.09677948 29.86523741 11.29273379 27.91764969 10.48950195 25.96972656 C9.33232716 23.16384639 8.17229523 20.35916208 7.01171875 17.5546875 C6.65534836 16.68883026 6.29897797 15.82297302 5.93180847 14.93087769 C4.46620505 11.39578504 2.97346095 7.94736601 1.24926758 4.52783203 C0 2 0 2 0 0 Z " fill="#3E3E3E" transform="translate(657,267)"/>
<path d="M0 0 C3.15495555 1.05622425 3.98341608 1.9717769 5.703125 4.8984375 C6.21359375 6.04570312 6.7240625 7.19296875 7.25 8.375 C7.77078125 9.51710938 8.2915625 10.65921875 8.828125 11.8359375 C10 15 10 15 10 19 C10.66 19.33 11.32 19.66 12 20 C12.52734375 22.07421875 12.52734375 22.07421875 12.9375 24.6875 C13.51587753 27.92365997 14.07625538 30.15251076 15.5625 33.125 C17.41330907 36.82661814 17.64577672 39.89100991 18 44 C17.01 44.495 17.01 44.495 16 45 C15.86102295 44.39808838 15.7220459 43.79617676 15.57885742 43.17602539 C13.34124836 34.23468174 9.85615541 25.91842605 6.3125 17.4375 C5.40272034 15.25051577 4.4948806 13.06278096 3.59111023 10.87330627 C3.03285695 9.5217662 2.4709917 8.17171104 1.90510559 6.823349 C0 2.22372392 0 2.22372392 0 0 Z " fill="#272727" transform="translate(712,399)"/>
<path d="M0 0 C31.68 0 63.36 0 96 0 C96 0.99 96 1.98 96 3 C94.35 3 92.7 3 91 3 C91 2.34 91 1.68 91 1 C60.97 1 30.94 1 0 1 C0 0.67 0 0.34 0 0 Z " fill="#131313" transform="translate(533,291)"/>
<path d="M0 0 C0.66 0 1.32 0 2 0 C2.9194362 5.96586288 2.98282343 11.46836734 2.59765625 17.48046875 C2.15859632 25.35777207 1.85093408 33.22542739 1.68359375 41.11328125 C1.66229401 42.11680634 1.64099426 43.12033142 1.61904907 44.15426636 C1.55644154 47.20697292 1.496883 50.25972919 1.4375 53.3125 C1.39413938 55.43294802 1.35052074 57.55339079 1.30664062 59.67382812 C1.20146883 64.78249668 1.09973196 69.89122248 1 75 C0.67 75 0.34 75 0 75 C0 50.25 0 25.5 0 0 Z " fill="#3B3B3B" transform="translate(335,143)"/>
<path d="M0 0 C3.08618869 1.54309434 3.64187867 4.52483525 4.85546875 7.58984375 C5.12136307 8.2495668 5.38725739 8.90928986 5.66120911 9.58900452 C6.22182137 10.98561843 6.77891382 12.38364956 7.33276367 13.78295898 C8.18432078 15.92948611 9.05130362 18.06931351 9.91992188 20.20898438 C10.46188073 21.56472749 11.00292744 22.92083567 11.54296875 24.27734375 C11.80434128 24.9200975 12.06571381 25.56285126 12.33500671 26.2250824 C12.94962423 27.79466297 13.48259664 29.39574577 14 31 C13.67 31.66 13.34 32.32 13 33 C10.21297611 31.60648806 9.8142546 29.85529103 8.5 27.0625 C6.69388758 23.2248649 6.69388758 23.2248649 4 20 C4.33 19.34 4.66 18.68 5 18 C3.62292893 14.85240898 2.43840236 12.43840236 0 10 C-0.1953125 7.6171875 -0.1953125 7.6171875 -0.125 4.875 C-0.10695313 3.96492188 -0.08890625 3.05484375 -0.0703125 2.1171875 C-0.04710937 1.41851562 -0.02390625 0.71984375 0 0 Z " fill="#1B1B1B" transform="translate(649,343)"/>
<path d="M0 0 C9.9 0 19.8 0 30 0 C30 0.66 30 1.32 30 2 C31.32 2 32.64 2 34 2 C34.66 3.65 35.32 5.3 36 7 C35.36473389 6.71995117 34.72946777 6.43990234 34.07495117 6.15136719 C26.40247638 3.03526377 19.5415422 2.35165016 11.3125 2.25 C10.12205078 2.22035156 8.93160156 2.19070313 7.70507812 2.16015625 C4.80332062 2.09023438 1.90233019 2.03715598 -1 2 C-0.67 1.34 -0.34 0.68 0 0 Z " fill="#161616" transform="translate(614,254)"/>
<path d="M0 0 C0.72822464 0.00424484 1.45644928 0.00848969 2.20674133 0.01286316 C4.53013252 0.02964142 6.85265275 0.0672902 9.17578125 0.10546875 C10.75194059 0.12051678 12.32811354 0.13420498 13.90429688 0.14648438 C17.76596002 0.1795419 21.62697303 0.23131681 25.48828125 0.29296875 C25.48828125 0.95296875 25.48828125 1.61296875 25.48828125 2.29296875 C24.22552368 2.32269775 24.22552368 2.32269775 22.93725586 2.35302734 C19.78548449 2.4315667 16.6340687 2.5182737 13.48266602 2.61035156 C12.12402862 2.64840954 10.7652984 2.68330096 9.40649414 2.71484375 C7.44265206 2.76100089 5.47912162 2.81985372 3.515625 2.87890625 C2.33734131 2.91032715 1.15905762 2.94174805 -0.05493164 2.97412109 C-3.8096897 3.32045304 -6.92888872 4.15270459 -10.51171875 5.29296875 C-10.51171875 3.29296875 -10.51171875 3.29296875 -9.48120117 1.6862793 C-6.50731566 -0.41759632 -3.50522385 -0.07683771 0 0 Z " fill="#171717" transform="translate(273.51171875,339.70703125)"/>
<path d="M0 0 C2 2 2 2 2 5 C2.66 5 3.32 5 4 5 C4 7.31 4 9.62 4 12 C3.34 12 2.68 12 2 12 C2.04125 12.9075 2.0825 13.815 2.125 14.75 C2.00468444 17.8782046 1.6085292 19.38614006 0 22 C-0.66 22 -1.32 22 -2 22 C-2.33 22.99 -2.66 23.98 -3 25 C-4.98 25.33 -6.96 25.66 -9 26 C-8.505 24.515 -8.505 24.515 -8 23 C-7.195625 22.71125 -6.39125 22.4225 -5.5625 22.125 C-2.79479829 21.23150677 -2.79479829 21.23150677 -1.75 18.5625 C-1.5025 17.716875 -1.255 16.87125 -1 16 C-0.67 15.01 -0.34 14.02 0 13 C0.06937062 10.77181559 0.08457084 8.54165476 0.0625 6.3125 C0.05347656 5.13300781 0.04445313 3.95351563 0.03515625 2.73828125 C0.02355469 1.83464844 0.01195312 0.93101562 0 0 Z " fill="#434342" transform="translate(575,352)"/>
<path d="M0 0 C0 0.99 0 1.98 0 3 C-0.99 3 -1.98 3 -3 3 C-3 3.66 -3 4.32 -3 5 C-4.7015625 5.2165625 -4.7015625 5.2165625 -6.4375 5.4375 C-9.80777201 5.61171478 -9.80777201 5.61171478 -11 7 C-13.29151417 7.08790975 -15.58572524 7.10694038 -17.87890625 7.09765625 C-18.90889992 7.09553383 -18.90889992 7.09553383 -19.95970154 7.09336853 C-22.16067801 7.08775479 -24.36155409 7.07520007 -26.5625 7.0625 C-28.05143083 7.05748676 -29.54036324 7.05292355 -31.02929688 7.04882812 C-34.68623075 7.03778093 -38.34310558 7.02050713 -42 7 C-42 6.67 -42 6.34 -42 6 C-33.09 5.67 -24.18 5.34 -15 5 C-15 4.67 -15 4.34 -15 4 C-14.39671875 3.87882813 -13.7934375 3.75765625 -13.171875 3.6328125 C-12.37265625 3.46523438 -11.5734375 3.29765625 -10.75 3.125 C-9.96109375 2.96257813 -9.1721875 2.80015625 -8.359375 2.6328125 C-5.40895851 1.84147563 -3.04850362 0 0 0 Z " fill="#2E2E2E" transform="translate(713,746)"/>
<path d="M0 0 C2.69185008 1.34592504 2.84753142 2.63010602 3.9453125 5.40234375 C4.29980469 6.29244141 4.65429688 7.18253906 5.01953125 8.09960938 C5.38433594 9.03611328 5.74914062 9.97261719 6.125 10.9375 C6.49753906 11.87013672 6.87007812 12.80277344 7.25390625 13.76367188 C10 20.71943681 10 20.71943681 10 23 C7.5625 22.625 7.5625 22.625 5 22 C4 20 4 20 4.0625 17.6875 C3.99179483 14.64717775 3.24202518 12.76005596 2 10 C0.40577844 6.45728543 -0.22257174 3.89500537 0 0 Z " fill="#232323" transform="translate(635,309)"/>
<path d="M0 0 C0.66 0 1.32 0 2 0 C2.29132813 0.65226563 2.58265625 1.30453125 2.8828125 1.9765625 C4.93062711 6.3426578 6.76506623 10.10914765 10.3125 13.4375 C11.199375 14.283125 12.08625 15.12875 13 16 C13 16.99 13 17.98 13 19 C13.66 19.33 14.32 19.66 15 20 C14.34 20 13.68 20 13 20 C12.67 20.66 12.34 21.32 12 22 C11.71125 21.195625 11.4225 20.39125 11.125 19.5625 C10.26737432 16.8673532 10.26737432 16.8673532 8 16 C8 15.34 8 14.68 8 14 C6.35 13.67 4.7 13.34 3 13 C3.33 11.68 3.66 10.36 4 9 C3.34 9 2.68 9 2 9 C2 7.68 2 6.36 2 5 C1.34 5 0.68 5 0 5 C0 3.35 0 1.7 0 0 Z " fill="#1D1D1D" transform="translate(104,727)"/>
<path d="M0 0 C0.66 0 1.32 0 2 0 C1.67 3.3 1.34 6.6 1 10 C0.34 10 -0.32 10 -1 10 C-1 11.65 -1 13.3 -1 15 C-1.99 15 -2.98 15 -4 15 C-4.33 16.32 -4.66 17.64 -5 19 C-6.4650113 14.49628572 -4.86369593 11.41994594 -3.0625 7.25 C-2.77181641 6.55261719 -2.48113281 5.85523438 -2.18164062 5.13671875 C-1.46448297 3.42024305 -0.73356598 1.70952768 0 0 Z " fill="#464645" transform="translate(168,377)"/>
<path d="M0 0 C1.98 0.99 1.98 0.99 4 2 C3.01 2.495 3.01 2.495 2 3 C2.495 3.928125 2.99 4.85625 3.5 5.8125 C5 9 5 9 5 12 C5.66 12.33 6.32 12.66 7 13 C7.6328125 15.94140625 7.6328125 15.94140625 8.125 19.5625 C8.29257812 20.76003906 8.46015625 21.95757812 8.6328125 23.19140625 C8.75398437 24.11824219 8.87515625 25.04507812 9 26 C6.53765015 23.01000375 5.1594825 20.20860977 3.875 16.5625 C3.54242187 15.63566406 3.20984375 14.70882813 2.8671875 13.75390625 C1.44879946 9.24956586 0.7576833 4.65434025 0 0 Z " fill="#0F0F0F" transform="translate(703,372)"/>
<path d="M0 0 C2 3.75 2 3.75 2 6 C1.34 6 0.68 6 0 6 C-0.33 6.99 -0.66 7.98 -1 9 C-1.66 9 -2.32 9 -3 9 C-3 10.65 -3 12.3 -3 14 C-3.66 14 -4.32 14 -5 14 C-5 15.65 -5 17.3 -5 19 C-7 18 -7 18 -7.77734375 16.328125 C-8.09758364 12.97965178 -6.92116319 10.79870764 -5.5625 7.75 C-5.08941406 6.67234375 -4.61632812 5.5946875 -4.12890625 4.484375 C-3.75636719 3.66453125 -3.38382813 2.8446875 -3 2 C-2.34 2.33 -1.68 2.66 -1 3 C-0.67 2.01 -0.34 1.02 0 0 Z " fill="#2B2B2B" transform="translate(164,392)"/>
<path d="M0 0 C0.33 0 0.66 0 1 0 C1 1.65 1 3.3 1 5 C0.34 5 -0.32 5 -1 5 C-1 6.65 -1 8.3 -1 10 C-1.66 10 -2.32 10 -3 10 C-3 11.65 -3 13.3 -3 15 C-3.66 15 -4.32 15 -5 15 C-5 16.65 -5 18.3 -5 20 C-5.66 20 -6.32 20 -7 20 C-7.51137226 13.09647445 -5.86964374 8.25172386 -3 2 C-2.67 2.66 -2.34 3.32 -2 4 C-1.34 4 -0.68 4 0 4 C0 2.68 0 1.36 0 0 Z " fill="#2F3030" transform="translate(192,323)"/>
<path d="M0 0 C1.875 0.625 1.875 0.625 4 2 C5.125 4.6875 5.125 4.6875 6 8 C7.44685987 13.19947254 9.16286023 18.05220022 11.36328125 22.9765625 C12 25 12 25 11 28 C9.42885366 24.3357646 7.86239884 20.66956379 6.30029297 17.00146484 C5.76805615 15.75351727 5.23453322 14.5061174 4.69970703 13.25927734 C3.93185131 11.46856372 3.16897715 9.67571657 2.40625 7.8828125 C1.94541016 6.80402832 1.48457031 5.72524414 1.00976562 4.61376953 C0 2 0 2 0 0 Z " fill="#4E4E4E" transform="translate(712,399)"/>
<path d="M0 0 C0.66 0 1.32 0 2 0 C3.53264372 8.51468733 3.91569687 18.16860625 0 26 C0 17.42 0 8.84 0 0 Z " fill="#282828" transform="translate(335,143)"/>
<path d="M0 0 C1.98 0 3.96 0 6 0 C6.0825 0.5775 6.165 1.155 6.25 1.75 C7.2026631 4.60798931 8.86053074 5.92954588 11 8 C11 8.66 11 9.32 11 10 C11.66 10 12.32 10 13 10 C13.33 12.64 13.66 15.28 14 18 C12.50190228 16.01435569 11.01687381 14.0236049 9.5703125 12 C6.69156796 8.01643999 3.93208797 5.0068908 0 2 C0 1.34 0 0.68 0 0 Z " fill="#262626" transform="translate(518,107)"/>
<path d="M0 0 C3.27580028 1.63790014 3.86530313 5.17373993 5.125 8.4375 C5.40214844 9.13166016 5.67929687 9.82582031 5.96484375 10.54101562 C8 15.71913485 8 15.71913485 8 18 C4.22471696 16.74157232 3.89332955 15.37506571 2 12 C1.34 11.34 0.68 10.68 0 10 C0.33 9.34 0.66 8.68 1 8 C0.90276549 6.00978479 0.90276549 6.00978479 0.5625 3.875 C0.376875 2.59625 0.19125 1.3175 0 0 Z " fill="#161616" transform="translate(663,377)"/>
<path d="M0 0 C2 1.1875 2 1.1875 4 3 C4.25 5.6875 4.25 5.6875 4 8 C4.66 8 5.32 8 6 8 C8.20399168 12.55491614 8.58846263 17.02906176 9 22 C6.03196167 19.03196167 4.93946582 15.41324818 3.375 11.5625 C3.05015625 10.78583984 2.7253125 10.00917969 2.390625 9.20898438 C2.08382812 8.46068359 1.77703125 7.71238281 1.4609375 6.94140625 C1.18040527 6.25763916 0.89987305 5.57387207 0.61083984 4.86938477 C0 3 0 3 0 0 Z " fill="#434343" transform="translate(679,318)"/>
<path d="M0 0 C1.98 0.99 1.98 0.99 4 2 C4 3.32 4 4.64 4 6 C4.66 6 5.32 6 6 6 C6.69906942 7.59915881 7.38389468 9.20455045 8.0625 10.8125 C8.44535156 11.70582031 8.82820312 12.59914063 9.22265625 13.51953125 C10 16 10 16 9 19 C5.60214445 17.30107223 4.80364676 13.42214288 3.375 10.0625 C2.88773438 8.9497168 2.88773438 8.9497168 2.390625 7.81445312 C0 2.27483259 0 2.27483259 0 0 Z " fill="#343435" transform="translate(657,267)"/>
<path d="M0 0 C8.91 0 17.82 0 27 0 C27 0.99 27 1.98 27 3 C25.35 3 23.7 3 22 3 C22 2.34 22 1.68 22 1 C14.74 1 7.48 1 0 1 C0 0.67 0 0.34 0 0 Z " fill="#1C1C1C" transform="translate(602,291)"/>
<path d="M0 0 C1.15941038 3.47823115 0.70820884 5.45895578 0 9 C-0.99 9 -1.98 9 -3 9 C-3 10.32 -3 11.64 -3 13 C-3.66 13 -4.32 13 -5 13 C-4.49540386 8.71093278 -3.94350927 4.88701855 -2 1 C-1.34 0.67 -0.68 0.34 0 0 Z " fill="#525252" transform="translate(195,314)"/>
<path d="M0 0 C1.670625 0.061875 1.670625 0.061875 3.375 0.125 C2.44225891 1.25394876 1.50359878 2.37800876 0.5625 3.5 C0.04042969 4.12648438 -0.48164063 4.75296875 -1.01953125 5.3984375 C-2.625 7.125 -2.625 7.125 -5.625 9.125 C-5.75 5.75 -5.75 5.75 -5.625 2.125 C-3.625 0.125 -3.625 0.125 0 0 Z " fill="#0B0B0B" transform="translate(308.625,108.875)"/>
<path d="M0 0 C0.33 0 0.66 0 1 0 C1 1.65 1 3.3 1 5 C0.34 5 -0.32 5 -1 5 C-1 6.65 -1 8.3 -1 10 C-1.66 10 -2.32 10 -3 10 C-3 11.65 -3 13.3 -3 15 C-3.66 14.67 -4.32 14.34 -5 14 C-5.17835515 9.45194365 -4.99785435 6.1205746 -3 2 C-2.67 2.66 -2.34 3.32 -2 4 C-1.34 4 -0.68 4 0 4 C0 2.68 0 1.36 0 0 Z " fill="#323131" transform="translate(174,367)"/>
<path d="M0 0 C1.80411967 2.75924185 2.0127245 3.88972103 1.625 7.25 C1.41875 8.1575 1.2125 9.065 1 10 C0.01 10 -0.98 10 -2 10 C-2 11.32 -2 12.64 -2 14 C-2.66 14 -3.32 14 -4 14 C-3.36843005 8.94744036 -1.86540627 4.70406799 0 0 Z " fill="#484848" transform="translate(202,293)"/>
<path d="M0 0 C1 3 1 3 0.5625 5.3125 C-1.75274647 9.29472393 -5.23211326 11.45010455 -9 14 C-9.66 13.67 -10.32 13.34 -11 13 C-10.45730469 12.48050781 -9.91460938 11.96101562 -9.35546875 11.42578125 C-4.00470957 6.24345698 -4.00470957 6.24345698 0 0 Z " fill="#636363" transform="translate(725,732)"/>
<path d="M0 0 C1.15941038 3.47823115 0.70820884 5.45895578 0 9 C-0.99 9 -1.98 9 -3 9 C-3 10.32 -3 11.64 -3 13 C-3.66 13 -4.32 13 -5 13 C-4.44516583 8.33939297 -3.45003386 3.45003386 0 0 Z " fill="#555556" transform="translate(177,358)"/>
<path d="M0 0 C0 0.99 0 1.98 0 3 C-0.99 3 -1.98 3 -3 3 C-3 3.66 -3 4.32 -3 5 C-6.63 5.33 -10.26 5.66 -14 6 C-14.33 5.34 -14.66 4.68 -15 4 C-14.39671875 3.87882813 -13.7934375 3.75765625 -13.171875 3.6328125 C-12.37265625 3.46523438 -11.5734375 3.29765625 -10.75 3.125 C-9.96109375 2.96257813 -9.1721875 2.80015625 -8.359375 2.6328125 C-5.40895851 1.84147563 -3.04850362 0 0 0 Z " fill="#5A5A5A" transform="translate(713,746)"/>
<path d="M0 0 C2 1 2 1 3.125 3.125 C4.15945114 6.52391089 4.1385722 9.46640886 4 13 C2.68 12.34 1.36 11.68 0 11 C0 7.37 0 3.74 0 0 Z " fill="#181818" transform="translate(649,343)"/>
<path d="M0 0 C2.25245881 2.68841859 3.88213958 4.64641875 5 8 C7.00016466 9.20882096 7.00016466 9.20882096 9 10 C7.68 10.33 6.36 10.66 5 11 C4.34 9.68 3.68 8.36 3 7 C2.34 7 1.68 7 1 7 C0.67 4.69 0.34 2.38 0 0 Z " fill="#0E0E0E" transform="translate(257,366)"/>
<path d="M0 0 C2.24956302 2.24956302 3.00510965 4.06323263 4.1875 7 C4.55230469 7.886875 4.91710937 8.77375 5.29296875 9.6875 C6 12 6 12 5 14 C1.20937727 9.17557107 -0.28418033 6.25196725 0 0 Z " fill="#292929" transform="translate(671,396)"/>
<path d="M0 0 C1.32 0.33 2.64 0.66 4 1 C4.33 2.32 4.66 3.64 5 5 C5.99 4.67 6.98 4.34 8 4 C8.33 4.66 8.66 5.32 9 6 C8.34 6 7.68 6 7 6 C6.67 6.99 6.34 7.98 6 9 C6 8.34 6 7.68 6 7 C5.34 7 4.68 7 4 7 C0 2.52941176 0 2.52941176 0 0 Z " fill="#202020" transform="translate(570,345)"/>
<path d="M0 0 C0.99 0 1.98 0 3 0 C3.66 3.96 4.32 7.92 5 12 C1.92732833 7.90310444 0 5.13829491 0 0 Z " fill="#424242" transform="translate(707,386)"/>
<path d="M0 0 C2.97 0.33 5.94 0.66 9 1 C9.66 2.65 10.32 4.3 11 6 C7.37 4.68 3.74 3.36 0 2 C0 1.34 0 0.68 0 0 Z " fill="#343434" transform="translate(639,255)"/>
<path d="M0 0 C1 3 1 3 0.4375 5.125 C-1 7 -1 7 -4.125 7.75 C-5.548125 7.87375 -5.548125 7.87375 -7 8 C-6.67 7.01 -6.34 6.02 -6 5 C-4.33333333 4.33333333 -2.66666667 3.66666667 -1 3 C-0.67 2.01 -0.34 1.02 0 0 Z " fill="#575757" transform="translate(573,370)"/>
<path d="M0 0 C1.98 0 3.96 0 6 0 C6 0.66 6 1.32 6 2 C7.32 2 8.64 2 10 2 C9 4 9 4 7 5 C4.64018187 4.06421005 2.30368736 3.06652192 0 2 C0 1.34 0 0.68 0 0 Z " fill="#181819" transform="translate(510,104)"/>
<path d="M0 0 C0.66 0 1.32 0 2 0 C2 1.65 2 3.3 2 5 C2.66 5 3.32 5 4 5 C4.66 6.98 5.32 8.96 6 11 C5.34 11 4.68 11 4 11 C4 10.34 4 9.68 4 9 C3.34 9 2.68 9 2 9 C0.50178941 5.62902617 0 3.79557881 0 0 Z " fill="#272728" transform="translate(697,360)"/>
<path d="M0 0 C1.9375 0.9375 1.9375 0.9375 4 3 C4.66174825 5.9858081 4.87205948 8.94861869 5 12 C1.94063363 8.24532309 0 4.91886939 0 0 Z " fill="#4C4C4C" transform="translate(693,352)"/>
<path d="M0 0 C1.9375 0.9375 1.9375 0.9375 4 3 C4.66174825 5.9858081 4.87205948 8.94861869 5 12 C1.94063363 8.24532309 0 4.91886939 0 0 Z " fill="#4F5050" transform="translate(679,318)"/>
<path d="M0 0 C1.9375 0.9375 1.9375 0.9375 4 3 C4.66174825 5.9858081 4.87205948 8.94861869 5 12 C1.94063363 8.24532309 0 4.91886939 0 0 Z " fill="#535353" transform="translate(665,284)"/>
<path d="M0 0 C0.99 0 1.98 0 3 0 C3 0.66 3 1.32 3 2 C3.66 2 4.32 2 5 2 C5.33 4.64 5.66 7.28 6 10 C3.47650757 6.87567603 1.72743854 3.61939504 0 0 Z " fill="#4C4C4C" transform="translate(526,115)"/>
<path d="M0 0 C3.63 1.65 7.26 3.3 11 5 C7.52176885 6.15941038 5.54104422 5.70820884 2 5 C2 4.01 2 3.02 2 2 C1.34 2 0.68 2 0 2 C0 1.34 0 0.68 0 0 Z " fill="#494949" transform="translate(117,744)"/>
<path d="M0 0 C2.26185454 2.26185454 3.03921617 3.96983561 4 7 C3.67 7.99 3.34 8.98 3 10 C2.34 9.67 1.68 9.34 1 9 C0.5859375 6.93359375 0.5859375 6.93359375 0.375 4.4375 C0.30023437 3.61121094 0.22546875 2.78492188 0.1484375 1.93359375 C0.09945312 1.29550781 0.05046875 0.65742188 0 0 Z " fill="#252525" transform="translate(653,352)"/>
<path d="M0 0 C0.66 0 1.32 0 2 0 C1.01 2.97 0.02 5.94 -1 9 C-1.66 9 -2.32 9 -3 9 C-3 7.68 -3 6.36 -3 5 C-2.34 5 -1.68 5 -1 5 C-0.67 3.35 -0.34 1.7 0 0 Z " fill="#0E0E0E" transform="translate(145,335)"/>
<path d="M0 0 C2.50298434 2.93828597 3.46930939 5.17902761 4 9 C3.01 9 2.02 9 1 9 C0.67 6.03 0.34 3.06 0 0 Z " fill="#1F1F1F" transform="translate(645,333)"/>
<path d="M0 0 C2.79872437 2.52788007 4.45773019 4.20411134 5 8 C2.5625 7.625 2.5625 7.625 0 7 C-1.33332095 4.3333581 -0.67102033 2.83319697 0 0 Z " fill="#121212" transform="translate(640,324)"/>
<path d="M0 0 C2.32947183 2.11770166 3.88750845 4.03335588 5 7 C4.67 7.99 4.34 8.98 4 10 C3.896875 9.360625 3.79375 8.72125 3.6875 8.0625 C3.460625 7.381875 3.23375 6.70125 3 6 C2.01 5.67 1.02 5.34 0 5 C0 3.35 0 1.7 0 0 Z " fill="#1E1F1F" transform="translate(630,298)"/>
<path d="M0 0 C0.66 0 1.32 0 2 0 C1.91291331 1.45945288 1.80473093 2.91765868 1.6875 4.375 C1.62949219 5.18710937 1.57148437 5.99921875 1.51171875 6.8359375 C1 9 1 9 -2 11 C-1.34 7.37 -0.68 3.74 0 0 Z " fill="#676767" transform="translate(728,721)"/>
<path d="M0 0 C0.66 0 1.32 0 2 0 C1.44271087 3.34373475 0.64826111 6.03312999 -1 9 C-2.0326802 6.21176345 -2.04509293 5.1322726 -1.0625 2.25 C-0.711875 1.5075 -0.36125 0.765 0 0 Z " fill="#676868" transform="translate(164,387)"/>
<path d="M0 0 C0.33 0 0.66 0 1 0 C1.17942163 3.94727588 1.09350689 6.5980513 -1 10 C-1.66 9.67 -2.32 9.34 -3 9 C-2.01 6.03 -1.02 3.06 0 0 Z " fill="#3B3B3B" transform="translate(576,364)"/>
<path d="M0 0 C2.97 0.495 2.97 0.495 6 1 C6 1.66 6 2.32 6 3 C5.01 3.33 4.02 3.66 3 4 C2.01 3.34 1.02 2.68 0 2 C0 1.34 0 0.68 0 0 Z M-1 3 C-0.01 3.33 0.98 3.66 2 4 C1.01 4.66 0.02 5.32 -1 6 C-1 5.01 -1 4.02 -1 3 Z " fill="#090909" transform="translate(315,103)"/>
<path d="M0 0 C1.32 0.33 2.64 0.66 4 1 C4.12375 1.639375 4.2475 2.27875 4.375 2.9375 C4.684375 3.9584375 4.684375 3.9584375 5 5 C5.66 5.33 6.32 5.66 7 6 C6.34 6 5.68 6 5 6 C4.67 6.66 4.34 7.32 4 8 C3.71125 7.195625 3.4225 6.39125 3.125 5.5625 C2.26737432 2.8673532 2.26737432 2.8673532 0 2 C0 1.34 0 0.68 0 0 Z " fill="#121212" transform="translate(112,741)"/>
<path d="M0 0 C2.6855594 2.6855594 3.06049974 5.37621328 4 9 C3.01 8.67 2.02 8.34 1 8 C-0.35439668 5.29120665 -0.06501451 2.99066732 0 0 Z " fill="#252525" transform="translate(667,386)"/>
<path d="M0 0 C0.66 0 1.32 0 2 0 C1.44271087 3.34373475 0.64826111 6.03312999 -1 9 C-2.0326802 6.21176345 -2.04509293 5.1322726 -1.0625 2.25 C-0.711875 1.5075 -0.36125 0.765 0 0 Z " fill="#676767" transform="translate(184,338)"/>
<path d="M0 0 C0.66 0 1.32 0 2 0 C1.67 3.3 1.34 6.6 1 10 C0.34 10 -0.32 10 -1 10 C-1.125 2.25 -1.125 2.25 0 0 Z " fill="#414141" transform="translate(186,333)"/>
<path d="M0 0 C1.15941038 3.47823115 0.70820884 5.45895578 0 9 C-2 8 -2 8 -2.8125 6.1875 C-3 4 -3 4 -1.5625 1.75 C-1.046875 1.1725 -0.53125 0.595 0 0 Z " fill="#3A3A3A" transform="translate(157,407)"/>
<path d="M0 0 C0 3 0 3 0 3 Z " fill="#000000" transform="translate(668,396)"/>
<path d="M0 0 C0.66 0.66 1.32 1.32 2 2 C1.01 2.495 1.01 2.495 0 3 C0 2.01 0 1.02 0 0 Z " fill="#000000" transform="translate(573,376)"/>
<path d="M0 0 C0 3 0 3 0 3 Z " fill="#000000" transform="translate(658,372)"/>
<path d="M0 0 C0.66 0.66 1.32 1.32 2 2 C1.01 2.495 1.01 2.495 0 3 C0 2.01 0 1.02 0 0 Z " fill="#000000" transform="translate(577,370)"/>
<path d="M0 0 C0 3 0 3 0 3 Z " fill="#000000" transform="translate(636,318)"/>
<path d="M0 0 C0 3 0 3 0 3 Z " fill="#000000" transform="translate(628,298)"/>
<path d="M0 0 C0.66 0 1.32 0 2 0 C2 0.66 2 1.32 2 2 C1.34 2 0.68 2 0 2 C0 1.34 0 0.68 0 0 Z " fill="#000000" transform="translate(295,251)"/>
<path d="M0 0 C0.99 0.495 0.99 0.495 2 1 C1.01 1.495 1.01 1.495 0 2 C0 1.34 0 0.68 0 0 Z " fill="#000000" transform="translate(717,747)"/>
<path d="M0 0 C0.99 0.495 0.99 0.495 2 1 C1.01 1.495 1.01 1.495 0 2 C0 1.34 0 0.68 0 0 Z " fill="#000000" transform="translate(719,745)"/>
<path d="M0 0 C0.66 0 1.32 0 2 0 C1.67 0.66 1.34 1.32 1 2 C0.67 1.34 0.34 0.68 0 0 Z " fill="#000000" transform="translate(113,745)"/>
<path d="M0 0 C0.99 0.495 0.99 0.495 2 1 C1.01 1.495 1.01 1.495 0 2 C0 1.34 0 0.68 0 0 Z " fill="#000000" transform="translate(721,743)"/>
<path d="M0 0 C0.99 0.495 0.99 0.495 2 1 C1.01 1.495 1.01 1.495 0 2 C0 1.34 0 0.68 0 0 Z " fill="#000000" transform="translate(723,741)"/>
<path d="M0 0 C0.99 0.495 0.99 0.495 2 1 C1.01 1.495 1.01 1.495 0 2 C0 1.34 0 0.68 0 0 Z " fill="#000000" transform="translate(725,739)"/>
<path d="M0 0 C0.66 0.66 1.32 1.32 2 2 C1.34 2 0.68 2 0 2 C0 1.34 0 0.68 0 0 Z " fill="#000000" transform="translate(729,431)"/>
<path d="M0 0 C0.66 0.66 1.32 1.32 2 2 C1.34 2 0.68 2 0 2 C0 1.34 0 0.68 0 0 Z " fill="#000000" transform="translate(725,421)"/>
<path d="M0 0 C0.66 0.66 1.32 1.32 2 2 C1.34 2 0.68 2 0 2 C0 1.34 0 0.68 0 0 Z " fill="#000000" transform="translate(715,397)"/>
<path d="M0 0 C0.66 0.66 1.32 1.32 2 2 C1.34 2 0.68 2 0 2 C0 1.34 0 0.68 0 0 Z " fill="#000000" transform="translate(711,387)"/>
<path d="M0 0 C0.33 0.66 0.66 1.32 1 2 C0.34 1.67 -0.32 1.34 -1 1 C-0.67 0.67 -0.34 0.34 0 0 Z " fill="#000000" transform="translate(171,382)"/>
<path d="M0 0 C0.33 0.66 0.66 1.32 1 2 C0.34 1.67 -0.32 1.34 -1 1 C-0.67 0.67 -0.34 0.34 0 0 Z " fill="#000000" transform="translate(175,372)"/>
<path d="M0 0 C0.66 0.66 1.32 1.32 2 2 C1.34 2 0.68 2 0 2 C0 1.34 0 0.68 0 0 Z " fill="#000000" transform="translate(701,363)"/>
<path d="M0 0 C0.33 0.66 0.66 1.32 1 2 C0.34 1.67 -0.32 1.34 -1 1 C-0.67 0.67 -0.34 0.34 0 0 Z " fill="#000000" transform="translate(179,362)"/>
<path d="M0 0 C0.33 0.66 0.66 1.32 1 2 C0.34 1.67 -0.32 1.34 -1 1 C-0.67 0.67 -0.34 0.34 0 0 Z " fill="#000000" transform="translate(183,352)"/>
<path d="M0 0 C0.66 0.66 1.32 1.32 2 2 C1.34 2 0.68 2 0 2 C0 1.34 0 0.68 0 0 Z " fill="#000000" transform="translate(695,349)"/>
<path d="M0 0 C0.66 0.66 1.32 1.32 2 2 C1.34 2 0.68 2 0 2 C0 1.34 0 0.68 0 0 Z " fill="#000000" transform="translate(575,345)"/>
<path d="M0 0 C0.66 0.66 1.32 1.32 2 2 C1.34 2 0.68 2 0 2 C0 1.34 0 0.68 0 0 Z " fill="#000000" transform="translate(573,343)"/>
<path d="M0 0 C0.66 0.66 1.32 1.32 2 2 C1.34 2 0.68 2 0 2 C0 1.34 0 0.68 0 0 Z " fill="#000000" transform="translate(691,339)"/>
<path d="M0 0 C0.66 0.66 1.32 1.32 2 2 C1.34 2 0.68 2 0 2 C0 1.34 0 0.68 0 0 Z " fill="#000000" transform="translate(687,329)"/>
<path d="M0 0 C0.33 0.66 0.66 1.32 1 2 C0.34 1.67 -0.32 1.34 -1 1 C-0.67 0.67 -0.34 0.34 0 0 Z " fill="#000000" transform="translate(193,328)"/>
<path d="M0 0 C0.33 0.66 0.66 1.32 1 2 C0.34 1.67 -0.32 1.34 -1 1 C-0.67 0.67 -0.34 0.34 0 0 Z " fill="#000000" transform="translate(197,318)"/>
<path d="M0 0 C0.33 0.66 0.66 1.32 1 2 C0.34 1.67 -0.32 1.34 -1 1 C-0.67 0.67 -0.34 0.34 0 0 Z " fill="#000000" transform="translate(199,312)"/>
<path d="M0 0 C0.66 0.66 1.32 1.32 2 2 C1.34 2 0.68 2 0 2 C0 1.34 0 0.68 0 0 Z " fill="#000000" transform="translate(677,305)"/>
<path d="M0 0 C0.33 0.66 0.66 1.32 1 2 C0.34 1.67 -0.32 1.34 -1 1 C-0.67 0.67 -0.34 0.34 0 0 Z " fill="#000000" transform="translate(205,298)"/>
<path d="M0 0 C0.66 0.66 1.32 1.32 2 2 C1.34 2 0.68 2 0 2 C0 1.34 0 0.68 0 0 Z " fill="#000000" transform="translate(673,295)"/>
<path d="M0 0 C0.66 0.66 1.32 1.32 2 2 C1.34 2 0.68 2 0 2 C0 1.34 0 0.68 0 0 Z " fill="#000000" transform="translate(667,281)"/>
<path d="M0 0 C0.66 0.66 1.32 1.32 2 2 C1.34 2 0.68 2 0 2 C0 1.34 0 0.68 0 0 Z " fill="#000000" transform="translate(649,255)"/>
<path d="M0 0 C2 1 2 1 2 1 Z " fill="#000000" transform="translate(156,417)"/>
<path d="M0 0 C2 1 2 1 2 1 Z " fill="#000000" transform="translate(255,371)"/>
<path d="" fill="#000000" transform="translate(0,0)"/>
<path d="" fill="#000000" transform="translate(0,0)"/>
<path d="" fill="#000000" transform="translate(0,0)"/>
<path d="" fill="#000000" transform="translate(0,0)"/>
<path d="" fill="#000000" transform="translate(0,0)"/>
<path d="" fill="#000000" transform="translate(0,0)"/>
<path d="" fill="#000000" transform="translate(0,0)"/>
<path d="" fill="#000000" transform="translate(0,0)"/>
<path d="" fill="#000000" transform="translate(0,0)"/>
<path d="" fill="#000000" transform="translate(0,0)"/>
<path d="" fill="#000000" transform="translate(0,0)"/>
<path d="" fill="#000000" transform="translate(0,0)"/>
<path d="" fill="#000000" transform="translate(0,0)"/>
<path d="" fill="#000000" transform="translate(0,0)"/>
<path d="" fill="#000000" transform="translate(0,0)"/>
<path d="" fill="#000000" transform="translate(0,0)"/>
<path d="" fill="#000000" transform="translate(0,0)"/>
<path d="" fill="#000000" transform="translate(0,0)"/>
<path d="" fill="#000000" transform="translate(0,0)"/>
<path d="" fill="#000000" transform="translate(0,0)"/>
<path d="" fill="#000000" transform="translate(0,0)"/>
<path d="" fill="#000000" transform="translate(0,0)"/>
<path d="" fill="#000000" transform="translate(0,0)"/>
<path d="" fill="#000000" transform="translate(0,0)"/>
<path d="" fill="#000000" transform="translate(0,0)"/>
<path d="" fill="#000000" transform="translate(0,0)"/>
<path d="" fill="#000000" transform="translate(0,0)"/>
<path d="" fill="#000000" transform="translate(0,0)"/>
<path d="" fill="#000000" transform="translate(0,0)"/>
<path d="" fill="#000000" transform="translate(0,0)"/>
<path d="" fill="#000000" transform="translate(0,0)"/>
<path d="" fill="#000000" transform="translate(0,0)"/>
<path d="" fill="#000000" transform="translate(0,0)"/>
<path d="" fill="#000000" transform="translate(0,0)"/>
<path d="" fill="#000000" transform="translate(0,0)"/>
<path d="" fill="#000000" transform="translate(0,0)"/>
<path d="" fill="#000000" transform="translate(0,0)"/>
<path d="" fill="#000000" transform="translate(0,0)"/>
<path d="" fill="#000000" transform="translate(0,0)"/>
<path d="" fill="#000000" transform="translate(0,0)"/>
<path d="" fill="#000000" transform="translate(0,0)"/>
<path d="" fill="#000000" transform="translate(0,0)"/>
<path d="" fill="#000000" transform="translate(0,0)"/>
<path d="" fill="#000000" transform="translate(0,0)"/>
<path d="" fill="#000000" transform="translate(0,0)"/>
<path d="" fill="#000000" transform="translate(0,0)"/>
<path d="" fill="#000000" transform="translate(0,0)"/>
<path d="" fill="#000000" transform="translate(0,0)"/>
<path d="" fill="#000000" transform="translate(0,0)"/>
<path d="" fill="#000000" transform="translate(0,0)"/>
<path d="" fill="#000000" transform="translate(0,0)"/>
<path d="" fill="#000000" transform="translate(0,0)"/>
<path d="" fill="#000000" transform="translate(0,0)"/>
<path d="" fill="#000000" transform="translate(0,0)"/>
<path d="" fill="#000000" transform="translate(0,0)"/>
</svg>
