<?xml version="1.0" encoding="UTF-8"?>
<svg version="1.1" xmlns="http://www.w3.org/2000/svg" width="1024" height="1024">
<path d="M0 0 C337.92 0 675.84 0 1024 0 C1024 337.92 1024 675.84 1024 1024 C686.08 1024 348.16 1024 0 1024 C0 686.08 0 348.16 0 0 Z " fill="#FEFEFE" transform="translate(0,0)"/>
<path d="M0 0 C1.75862961 -0.004071 3.51725665 -0.00941583 5.27587891 -0.01593018 C10.02793716 -0.02954677 14.77979889 -0.02432859 19.53186035 -0.01479292 C24.51864123 -0.00716691 29.50540592 -0.01425008 34.4921875 -0.01895142 C42.86461388 -0.02440042 51.23696071 -0.01723982 59.609375 -0.00292969 C69.27176285 0.01339516 78.93396075 0.00810605 88.59634399 -0.0084089 C96.91087462 -0.02204816 105.22534827 -0.02393151 113.53988647 -0.0160929 C118.49765127 -0.01142978 123.45532696 -0.01075393 128.41308594 -0.02070236 C133.07534624 -0.02940532 137.73736301 -0.02328959 142.39959717 -0.00601959 C144.10471188 -0.00207247 145.8098473 -0.00315817 147.51495361 -0.00980759 C160.17863527 -0.05461735 170.73327733 0.49544058 180.5 9.38818359 C187.69084538 16.57902898 189.94711337 24.7384111 189.99768066 34.69197083 C189.97610901 36.41935738 189.97610901 36.41935738 189.95410156 38.18164062 C189.95468567 39.42180435 189.95526978 40.66196808 189.95587158 41.93971252 C189.95357755 45.3092417 189.93364809 48.67776611 189.90557575 52.04711771 C189.88041177 55.57979217 189.87820838 59.11248289 189.87347412 62.64523315 C189.86108804 69.320937 189.82832639 75.9963759 189.78807616 82.67196357 C189.74322156 90.27781732 189.72133717 97.88368433 189.70129442 105.48963761 C189.65958922 121.12263921 189.58932327 136.75537711 189.5 152.38818359 C190.80799057 152.38152176 192.11598114 152.37485992 193.46360779 152.36799622 C205.80762391 152.30710464 218.15160944 152.26217224 230.49574184 152.23274708 C236.84154471 152.21711063 243.18722605 152.19590898 249.53295898 152.16186523 C255.66025546 152.12920016 261.78743524 152.11131538 267.91481209 152.10355186 C270.24911396 152.09802122 272.58340965 152.08722126 274.91766167 152.07099342 C278.1945143 152.04912455 281.47088853 152.04622068 284.74780273 152.04760742 C285.70662354 152.03682159 286.66544434 152.02603577 287.65332031 152.0149231 C296.78996712 152.05659137 304.53230899 154.06376709 311.17114258 160.58422852 C313.84222687 163.80022632 315.55314202 167.15229895 317.2578125 170.93115234 C317.59914719 171.67287186 317.94048187 172.41459137 318.29216003 173.17878723 C321.99006882 181.30556774 325.3665568 189.56444712 328.70877075 197.84237671 C330.2517962 201.66356935 331.80562498 205.48034289 333.35874939 209.29743958 C334.17471515 211.30292867 334.99019213 213.3086167 335.80519104 215.3144989 C340.18324163 226.08520289 344.61968289 236.83156987 349.0625 247.57568359 C349.85508817 249.49396699 350.64765005 251.41226125 351.44018555 253.33056641 C355.33545805 262.75556509 359.24117349 272.17614403 363.16015625 281.59130859 C375.9830669 312.40635877 375.9830669 312.40635877 381 325.20068359 C381.53391357 326.56084595 381.53391357 326.56084595 382.07861328 327.94848633 C384.09631659 333.1571807 385.62229339 337.59542972 385.63422108 343.23812962 C385.63867892 344.21814428 385.64313676 345.19815894 385.64772969 346.20787102 C385.64745315 347.8191737 385.64745315 347.8191737 385.64717102 349.46302795 C385.65084771 350.60616264 385.6545244 351.74929733 385.6583125 352.92707247 C385.66742981 356.10064705 385.67204695 359.27419124 385.67470181 362.44777668 C385.67860924 365.87058811 385.68818734 369.29338463 385.69691467 372.71618652 C385.71666771 380.98308693 385.72674427 389.24998854 385.73564246 397.51690665 C385.74002766 401.41210949 385.74539391 405.30731097 385.75063133 409.20251274 C385.7676432 422.15511448 385.78213637 435.10771538 385.78938007 448.06032658 C385.7912899 451.42083296 385.79321024 454.78133934 385.79516602 458.1418457 C385.79564976 458.97706103 385.7961335 459.81227636 385.7966319 460.67280125 C385.80492845 474.19636474 385.83025922 487.71983968 385.86274669 501.24336452 C385.89584524 515.13478849 385.9138314 529.02616749 385.91702431 542.91763109 C385.91918693 550.71426316 385.92789901 558.51076612 385.95348549 566.3073597 C385.97523081 572.94876029 385.98322418 579.59000041 385.97351871 586.23143256 C385.96898479 589.61724342 385.97300411 593.00245598 385.99028015 596.38826561 C386.00799875 600.06727236 386.00089174 603.74544598 385.98774719 607.42445374 C386.00420106 609.01233384 386.00420106 609.01233384 386.02098733 610.63229233 C385.93118628 621.07941039 382.94520352 630.81003002 375.5 638.38818359 C363.11554721 649.03107271 348.08957894 647.82035046 332.72570801 647.77586365 C330.38528961 647.78003866 328.04487324 647.7855171 325.70446062 647.79218346 C319.95785982 647.80512135 314.21137986 647.80415082 308.46477143 647.79722107 C301.57741261 647.78969042 294.69010605 647.79958908 287.8027548 647.80992427 C274.3093693 647.82957351 260.81602225 647.831942 247.32262586 647.82672907 C235.51423741 647.82216942 223.70586416 647.82277417 211.8974762 647.82856941 C210.3126646 647.82932628 208.727853 647.83008226 207.1430414 647.83083736 C204.75479964 647.83198257 202.36655788 647.83313245 199.97831613 647.8342966 C177.78008587 647.84499882 155.58186066 647.84972961 133.38362885 647.84182644 C132.54715066 647.84152927 131.71067247 647.84123209 130.84884645 647.84092591 C124.05631611 647.83847705 117.26378583 647.83586543 110.47125555 647.83324178 C83.97218667 647.82313782 57.47318114 647.83149871 30.97412109 647.85473633 C1.19250041 647.88081033 -28.58908214 647.89365667 -58.37071466 647.88654858 C-61.54630183 647.88583253 -64.72188901 647.88515814 -67.8974762 647.88450813 C-68.67936936 647.88433832 -69.46126253 647.88416851 -70.26684942 647.88399356 C-82.06694708 647.8816911 -93.86700929 647.88966492 -105.667099 647.90279961 C-119.08622815 647.91770993 -132.50527427 647.9185551 -145.92440164 647.9007287 C-152.77129276 647.89200736 -159.61803933 647.88958814 -166.46492195 647.90538025 C-172.73316192 647.91918664 -179.00110688 647.91451594 -185.26932961 647.89514101 C-187.53634081 647.89136834 -189.80337542 647.89433928 -192.07036585 647.90475266 C-217.90443684 648.01497875 -217.90443684 648.01497875 -228.6484375 639.28271484 C-237.92606026 629.7897886 -239.80325765 619.62170258 -239.77415466 606.89720154 C-239.77939134 605.75755497 -239.78462802 604.61790839 -239.79002339 603.44372708 C-239.80499624 599.63407982 -239.80572796 595.82456721 -239.80639648 592.01489258 C-239.81294219 589.27945825 -239.82239938 586.54403545 -239.83161926 583.80860901 C-239.85441731 576.3826931 -239.86238445 568.95680587 -239.86744571 561.53085971 C-239.87070917 556.88799603 -239.8772356 552.24514058 -239.8844471 547.60228157 C-239.90400724 534.73016217 -239.92041455 521.8580504 -239.92332363 508.98591518 C-239.9235112 508.16303843 -239.92369877 507.34016168 -239.92389202 506.49234927 C-239.92425826 504.82440221 -239.92462196 503.15645516 -239.92498314 501.4885081 C-239.92516595 500.66061341 -239.92534876 499.83271873 -239.92553711 498.97973633 C-239.92571766 498.15082286 -239.92589821 497.32190939 -239.92608423 496.46787734 C-239.92962313 483.04747182 -239.95663035 469.62722704 -239.994035 456.20687722 C-240.03219102 442.4057015 -240.05148165 428.60460538 -240.05178314 414.80337578 C-240.05236612 407.06366033 -240.06075428 399.3241366 -240.08978081 391.58447075 C-240.1143927 384.99192354 -240.12151203 378.39963796 -240.10653328 371.80705713 C-240.09940351 368.44896863 -240.10281449 365.09181244 -240.12294388 361.73371506 C-240.19994817 348.04711338 -240.18546901 336.02176923 -234.5 323.38818359 C-233.92821668 321.91585024 -233.35892308 320.44254454 -232.79345703 318.96777344 C-232.28669434 317.77361816 -231.77993164 316.57946289 -231.2578125 315.34912109 C-230.97309586 314.67281647 -230.68837921 313.99651184 -230.39503479 313.29971313 C-229.78963415 311.86272831 -229.18189009 310.42672865 -228.5718689 308.99169922 C-226.89863114 305.0536287 -225.24541153 301.1071448 -223.58984375 297.16162109 C-223.07756981 295.94246002 -223.07756981 295.94246002 -222.5549469 294.69866943 C-219.02755932 286.29068508 -215.60060028 277.84306519 -212.1875 269.38818359 C-210.94053701 266.30207104 -209.69306261 263.21616549 -208.4453125 260.13037109 C-208.12894333 259.34786987 -207.81257416 258.56536865 -207.48661804 257.75915527 C-202.78929918 246.14946902 -198.04503517 234.55881069 -193.28881836 222.97314453 C-192.53230079 221.12975638 -191.77587167 219.28633193 -191.01953125 217.44287109 C-190.64583908 216.53206787 -190.27214691 215.62126465 -189.88713074 214.68286133 C-187.60925139 209.12204105 -185.35516595 203.55222954 -183.12034607 197.97396851 C-181.67944096 194.37962869 -180.22998683 190.78876612 -178.77975464 187.19818115 C-178.10238885 185.51423168 -177.42919164 183.82859837 -176.76052856 182.14117432 C-168.35614993 160.94003926 -168.35614993 160.94003926 -159.4375 155.95068359 C-158.62152344 155.47759766 -157.80554688 155.00451172 -156.96484375 154.51708984 C-153.02020724 152.71043382 -149.2200739 152.26277033 -144.91252136 152.26792908 C-144.02216187 152.26655441 -143.13180237 152.26517975 -142.21446228 152.26376343 C-141.25061111 152.2673587 -140.28675995 152.27095398 -139.29370117 152.2746582 C-138.26884613 152.27451218 -137.24399109 152.27436615 -136.18807983 152.2742157 C-132.80635448 152.27491141 -129.42468446 152.28268789 -126.04296875 152.29052734 C-123.69598928 152.29239273 -121.34900942 152.29381607 -119.00202942 152.29481506 C-112.82889732 152.2986307 -106.6557888 152.30845288 -100.48266602 152.31951904 C-94.18180663 152.32975363 -87.88094343 152.33431708 -81.58007812 152.33935547 C-69.22004173 152.35007598 -56.86002283 152.36714099 -44.5 152.38818359 C-44.50368717 151.74287752 -44.50737434 151.09757145 -44.51117325 150.43271065 C-44.59968288 134.69853188 -44.66578644 118.96444025 -44.70724869 103.23007393 C-44.72783479 95.62090209 -44.75587922 88.01189688 -44.80175781 80.40283203 C-44.84174727 73.76730478 -44.86746152 67.13189827 -44.87635398 60.49625385 C-44.88154839 56.98580587 -44.89367324 53.47570318 -44.92292023 49.96536636 C-44.95537844 46.03739417 -44.95595167 42.10975338 -44.95410156 38.18164062 C-44.96848267 37.03004959 -44.98286377 35.87845856 -44.99768066 34.69197083 C-44.94560963 24.44241644 -42.39144167 16.54684429 -35.27734375 9.07177734 C-25.25101537 -0.42568976 -12.9663972 -0.05056517 0 0 Z " fill="#000000" transform="translate(439.5,185.61181640625)"/>
<path d="M0 0 C181.83 0 363.66 0 551 0 C551 80.52 551 161.04 551 244 C369.17 244 187.34 244 0 244 C0 163.48 0 82.96 0 0 Z " fill="#FEFEFE" transform="translate(237,553)"/>
<path d="M0 0 C1.32708733 0.00539291 1.32708733 0.00539291 2.6809845 0.01089478 C4.07108734 0.01067574 4.07108734 0.01067574 5.48927307 0.01045227 C8.56809285 0.01115178 11.64685295 0.01894595 14.72566223 0.02676392 C16.85415616 0.02862796 18.98265051 0.03005193 21.11114502 0.03105164 C26.72537919 0.03487789 32.33958766 0.04470909 37.95381165 0.05575562 C44.68350951 0.06776147 51.41321595 0.07237146 58.14292145 0.07820892 C68.37755085 0.08792079 78.61212384 0.1070766 88.84675598 0.12442017 C88.84675598 16.29442017 88.84675598 32.46442017 88.84675598 49.12442017 C74.34675598 49.31192017 74.34675598 49.31192017 69.82136536 49.33218384 C62.36518438 49.50715742 56.4172714 49.78010379 50.84675598 55.12442017 C47.46705351 59.33148629 46.53440316 63.99391309 46.84675598 69.31192017 C47.73846729 75.06345808 50.10349323 78.55123183 54.40925598 82.43692017 C57.93827378 84.88008633 60.58600208 85.25041236 64.76944256 85.26143456 C65.79111702 85.2665091 66.81279148 85.27158364 67.86542577 85.27681196 C68.99127813 85.27730971 70.1171305 85.27780747 71.27709961 85.27832031 C72.4704992 85.28270257 73.66389879 85.28708482 74.893462 85.29159987 C78.21191199 85.3026697 81.53031481 85.30921392 84.84877646 85.31378102 C88.42560697 85.31973691 92.0024201 85.33134677 95.57923889 85.34207153 C104.22028921 85.36659558 112.86134527 85.38122255 121.50241968 85.3941316 C123.94290094 85.39784348 126.38338162 85.40181672 128.82386231 85.40588427 C143.97790953 85.43112037 159.13195764 85.45317415 174.28602123 85.46561241 C177.79625642 85.46854212 181.30649157 85.47150378 184.81672668 85.47451782 C185.68918182 85.47526387 186.56163696 85.47600992 187.46053014 85.47677858 C201.59405652 85.48943245 215.72745711 85.52265596 229.86092468 85.56431966 C244.37041836 85.60674132 258.87984763 85.6303077 273.38940316 85.63553298 C281.53642329 85.6389468 289.68324682 85.65069849 297.83020592 85.68363571 C304.76854333 85.7116406 311.70664384 85.72263369 318.64503338 85.71144025 C322.18437539 85.70625465 325.72322133 85.70913292 329.26249123 85.73390579 C333.10236007 85.76055801 336.94155338 85.74833433 340.78149414 85.73242188 C342.45354228 85.75324501 342.45354228 85.75324501 344.15936917 85.77448881 C351.00208675 85.70457493 355.55829192 84.5920762 360.84675598 80.12442017 C365.0297317 75.53664035 365.20333883 70.9666139 365.11628723 64.98379517 C364.70319931 60.60147109 363.54373973 57.58292743 360.84675598 54.12442017 C353.4931508 49.10486369 346.02286558 49.46616151 337.34675598 49.37442017 C332.56175598 49.29192017 327.77675598 49.20942017 322.84675598 49.12442017 C322.84675598 32.95442017 322.84675598 16.78442017 322.84675598 0.12442017 C354.52675598 0.12442017 386.20675598 0.12442017 418.84675598 0.12442017 C430.19856019 26.23356984 430.19856019 26.23356984 435.03837585 38.32479858 C436.61483324 42.26127406 438.2034811 46.19282734 439.79206848 50.12442017 C440.28727242 51.35036392 440.28727242 51.35036392 440.79248047 52.60107422 C444.5650485 61.92457209 448.42326334 71.21227814 452.28425598 80.49942017 C453.6986277 83.90423969 455.11258058 87.30923308 456.52644348 90.71426392 C456.8776123 91.55996445 457.22878113 92.40566498 457.59059143 93.2769928 C461.34774808 102.32743468 465.0973916 111.38094107 468.82920837 120.44186401 C469.54543297 122.17933249 470.2629286 123.91627759 470.98173523 125.65267944 C471.97261057 128.04685651 472.95908244 130.4428003 473.94441223 132.83926392 C474.240383 133.55175797 474.53635376 134.26425201 474.84129333 134.99833679 C476.84675598 139.89603825 476.84675598 139.89603825 476.84675598 142.12442017 C298.64675598 142.12442017 120.44675598 142.12442017 -63.15324402 142.12442017 C-62.34771373 137.29123842 -61.25416179 133.4296505 -59.40715027 128.99160767 C-59.12515778 128.29991989 -58.84316528 127.60823212 -58.55262756 126.89558411 C-57.61281702 124.59443384 -56.66425588 122.296996 -55.71574402 119.99942017 C-55.03881709 118.34657979 -54.3624801 116.69349769 -53.68669128 115.04019165 C-52.2495884 111.52730832 -50.80884804 108.01594913 -49.36515808 104.50576782 C-47.21229337 99.27070939 -45.06820274 94.0320963 -42.92668152 88.79238892 C-40.74566019 83.45646177 -38.56411764 78.12075531 -36.37834167 72.78677368 C-32.21173595 62.61702312 -28.05944785 52.44158519 -23.92481804 42.25879097 C-23.15788377 40.37022053 -22.39061929 38.48178462 -21.62322998 36.59339905 C-21.37164847 35.97429437 -21.12006697 35.35518969 -20.86086178 34.71732426 C-20.35500688 33.4725044 -19.84914056 32.2276892 -19.34326267 30.98287868 C-18.09464976 27.90987663 -16.84738345 24.83633683 -15.60169983 21.762146 C-14.2135362 18.33643032 -12.8223563 14.91195377 -11.43058777 11.48770142 C-11.01168274 10.45139587 -10.59277771 9.41509033 -10.16117859 8.34738159 C-9.77820618 7.40666809 -9.39523376 6.46595459 -9.00065613 5.49673462 C-8.66634079 4.67236404 -8.33202545 3.84799347 -7.98757935 2.99864197 C-6.26237665 -0.87679323 -3.95955195 0.00679771 0 0 Z " fill="#FDFDFD" transform="translate(306.1532440185547,374.8755798339844)"/>
<path d="M0 0 C53.13 0 106.26 0 161 0 C161 66.33 161 132.66 161 201 C107.87 201 54.74 201 0 201 C0 134.67 0 68.34 0 0 Z " fill="#FEFEFE" transform="translate(432,223)"/>
</svg>
